<?xml version="1.0" encoding="UTF-8" standalone="no"?>
<!-- Created with Inkscape (http://www.inkscape.org/) -->

<svg
   xmlns:dc="http://purl.org/dc/elements/1.1/"
   xmlns:cc="http://creativecommons.org/ns#"
   xmlns:rdf="http://www.w3.org/1999/02/22-rdf-syntax-ns#"
   xmlns:svg="http://www.w3.org/2000/svg"
   xmlns="http://www.w3.org/2000/svg"
   xmlns:sodipodi="http://sodipodi.sourceforge.net/DTD/sodipodi-0.dtd"
   xmlns:inkscape="http://www.inkscape.org/namespaces/inkscape"
   width="28.98583cm"
   height="28.98583cm"
   viewBox="0 0 289.85831 289.8583"
   version="1.1"
   id="svg4515"
   inkscape:version="0.92.1 r15371"
   sodipodi:docname="favicon.svg">
  <defs
     id="defs4509" />
  <style
     id="style3">
    path { fill: #0056ef; }
    @media (prefers-color-scheme: dark) {
      path { fill: #ffffff; }
    }
  </style>
  <g
     inkscape:label="Ebene 1"
     inkscape:groupmode="layer"
     id="layer1"
     transform="translate(140.57843,-0.59405263)">
    <path
       style="fill-opacity:1;stroke:none;stroke-width:0.35277775"
       d="m 145.06822,40.428534 c -3.01561,0.02572 -12.18472,0.6913 -41.90597,2.737818 -36.807655,2.531284 -73.710665,5.076129 -110.0666748,7.565429 -36.7671502,2.517098 -33.1316902,2.176272 -34.8800402,3.268536 -1.96474,1.227444 -3.07408,3.30931 -3.72638,6.993887 -5.4411,26.301837 -9.80331,45.175926 -13.32426,60.473836 -0.434438,2.2227 -1.905417,5.72132 -0.69918,7.40833 1.26003,1.73434 2.78125,2.12738 13.75369,3.55275 57.743906,7.64109 107.565792,14.02327 161.995795,21.31033 11.24149,1.50598 11.7742,-0.8776 12.26913,-2.11597 0.39233,-0.98157 0.7851,-1.95514 2.18011,-9.34173 5.75577,-29.80759 12.43761,-64.810606 17.30748,-89.605384 1.52339,-7.755877 1.5947,-8.6047 0.83508,-9.905339 -1.38719,-1.98584 -2.53978,-2.347228 -3.73878,-2.342493 z M -72.344875,137.45466 c -1.94027,0.30081 -17.10055,2.46944 -33.689925,4.81934 -16.58937,2.3499 -30.85056,4.52186 -31.6916,4.82658 -2.53065,0.91687 -3.5546,3.43793 -2.3456,5.77587 0.74574,1.4421 2.60325,2.30177 8.46047,3.91501 0.77611,0.21376 1.80833,0.51912 2.2934,0.67851 54.829435,15.38457 112.774935,32.35174 164.041655,46.94959 2.87828,0.86432 7.457258,1.94248 9.959838,1.95011 1.89216,-0.51009 12.054432,-5.41114 36.566522,-17.74604 19.909935,-10.01902 36.494155,-18.47188 36.853575,-18.78439 1.36459,-1.18662 2.08816,-3.74768 1.36942,-4.84725 -0.14255,-0.21808 -2.08469,-0.66565 -4.31601,-0.99477 -5.30049,-0.78184 -21.811045,-3.19512 -27.869625,-4.07365 -64.540253,-9.71048 -92.3465622,-13.5668 -147.10833,-21.66896 -4.316496,-0.93646 -8.496444,-1.41238 -12.52379,-0.79995 z m -16.0631,39.11079 c -0.0876,-0.007 -0.15118,-0.007 -0.18758,5.3e-4 -0.6509,0.1375 -13.558855,27.81692 -13.558855,29.07522 0,1.28756 0.92654,2.86871 2.03295,3.46904 1.225105,0.66472 2.000835,0.67553 3.775985,0.0532 5.3657,-1.66964 11.08586,-3.53236 16.41606,-5.13354 15.89405,-4.76687 16.15683,-4.86434 17.84128,-6.62233 1.923163,-3.55461 3.381558,-7.30052 5.68751,-12.43955 -9.27449,-2.40047 -18.9032,-5.01484 -27.68513,-7.4228 -1.91546,-0.52529 -3.70876,-0.92841 -4.32222,-0.97979 z m 164.78064,21.60953 c -0.27094,-0.0111 -0.69713,0.18978 -1.4826,0.64854 -0.84555,0.49386 -3.28396,1.87763 -5.41827,3.07475 -5.80886,3.5129 -11.32035,7.16469 -17.4625,10.06347 -4.98392,3.11929 -7.18033,3.79919 -9.6759,2.99619 -2.43519,-0.78356 -8.9187,-2.47323 -9.48934,-2.47323 -0.33679,0 -0.70145,0.27747 -0.8108,0.61702 -0.19123,0.59383 -0.79709,2.29576 -2.29185,6.43836 -2.40719,6.19663 -4.4796,12.4538 -6.65128,18.34462 -1.03601,2.80799 -2.84621,9.26604 -2.81791,10.05313 0.0278,0.7759 1.71343,2.36598 3.01635,2.84531 0.799,0.29393 1.97486,0.43012 2.79156,0.32349 15.17811,-6.14222 26.74997,-13.89026 39.66012,-20.65145 3.95125,-2.06247 5.40144,-3.50576 5.97017,-5.94227 0.47659,-2.04182 1.37007,-6.01442 1.9513,-8.67699 0.29649,-1.3582 0.8781,-3.97757 1.29295,-5.82084 2.20478,-9.79651 2.34535,-10.71102 1.7818,-11.60084 -0.0948,-0.14971 -0.20123,-0.23262 -0.3638,-0.23926 z"
       id="path5085"
       inkscape:connector-curvature="0"
       sodipodi:nodetypes="cccccccccccccccscsccccsccccccscscccccccsssccscccccccccccss" />
  </g>
</svg>
