<?xml version="1.0" encoding="UTF-8" standalone="no"?>
<!-- Created with Inkscape (http://www.inkscape.org/) -->

<svg
   xmlns:dc="http://purl.org/dc/elements/1.1/"
   xmlns:cc="http://creativecommons.org/ns#"
   xmlns:rdf="http://www.w3.org/1999/02/22-rdf-syntax-ns#"
   xmlns:svg="http://www.w3.org/2000/svg"
   xmlns="http://www.w3.org/2000/svg"
   xmlns:sodipodi="http://sodipodi.sourceforge.net/DTD/sodipodi-0.dtd"
   xmlns:inkscape="http://www.inkscape.org/namespaces/inkscape"
   width="802.48901"
   height="217.737"
   viewBox="0 0 212.32521 57.609583"
   version="1.1"
   id="svg8"
   inkscape:version="0.92.1 r15371"
   sodipodi:docname="cyclone.svg">
  <defs
     id="defs2" />
  <sodipodi:namedview
     id="base"
     pagecolor="#ffffff"
     bordercolor="#666666"
     borderopacity="1.0"
     inkscape:pageopacity="0.0"
     inkscape:pageshadow="2"
     inkscape:zoom="0.7"
     inkscape:cx="434.77498"
     inkscape:cy="165.30245"
     inkscape:document-units="mm"
     inkscape:current-layer="layer1"
     showgrid="false"
     units="px"
     fit-margin-top="0"
     fit-margin-left="0"
     fit-margin-right="0"
     fit-margin-bottom="0"
     inkscape:window-width="1920"
     inkscape:window-height="1017"
     inkscape:window-x="-8"
     inkscape:window-y="451"
     inkscape:window-maximized="1" />
  <metadata
     id="metadata5">
    <rdf:RDF>
      <cc:Work
         rdf:about="">
        <dc:format>image/svg+xml</dc:format>
        <dc:type
           rdf:resource="http://purl.org/dc/dcmitype/StillImage" />
        <dc:title></dc:title>
      </cc:Work>
    </rdf:RDF>
  </metadata>
  <g
     inkscape:label="Layer 1"
     inkscape:groupmode="layer"
     id="layer1"
     transform="translate(17.208874,-136.19092)">
    <g
       id="g4518"
       transform="matrix(0.27207797,0,0,0.27207797,50.387997,114.50479)">
      <path
         style="fill:#fef000;stroke-width:0.35277778"
         d="M -248.43114,185.59151 V 79.758179 H 141.74107 531.91328 V 185.59151 291.42485 H 141.74107 -248.43114 Z"
         id="path4524"
         inkscape:connector-curvature="0" />
      <path
         style="fill:#fde600;stroke-width:0.35277778"
         d="m -248.35073,284.84575 0.096,-6.57911 3.35139,-1.16585 c 4.95193,-1.72264 7.49836,-1.5147 10.24539,0.83666 3.64958,3.1239 4.00098,8.56101 0.78348,12.1224 l -1.2332,1.365 h -6.66951 -6.66951 z m 47.42971,6.31452 c -0.0861,-0.14553 -0.26356,-0.91207 -0.39439,-1.70344 -0.17199,-1.04034 -0.10021,-1.55311 0.25918,-1.85137 0.27339,-0.22689 4.67421,-1.30781 9.77962,-2.40205 10.47253,-2.24456 9.928,-2.28723 10.39312,0.8144 0.3426,2.28462 0.50867,2.58482 1.42992,2.58482 1.26321,0 9.12202,-1.76228 9.48976,-2.12801 0.20083,-0.19974 0.1594,-1.23511 -0.10735,-2.68285 -0.35312,-1.91645 -0.34831,-2.44092 0.0257,-2.80301 0.25307,-0.24499 4.58666,-1.3204 9.63021,-2.3898 10.41318,-2.20794 10.16476,-2.22748 10.5856,0.83239 0.3587,2.60806 0.64485,2.81465 3.2703,2.36113 1.8291,-0.31597 2.29716,-0.29394 2.70342,0.12721 0.27023,0.28013 0.83277,2.25558 1.25008,4.38988 0.41732,2.13431 0.83867,4.15837 0.93633,4.49792 0.1681,0.58447 -1.40123,0.61736 -29.45873,0.61736 -16.29995,0 -29.70671,-0.11906 -29.79279,-0.26458 z m 88.79722,-1.95278 c 2.00389,-5.32384 4.9841,-9.93595 9.34031,-14.45482 3.303565,-3.42693 7.08288,-6.38144 8.63995,-6.75435 2.174554,-0.5208 4.824264,1.28574 4.807327,3.27758 -0.0098,1.15302 -0.736018,2.03573 -3.018352,3.66878 -4.269458,3.05488 -9.052205,9.10564 -11.283725,14.27531 l -0.95175,2.20486 h -4.18419 -4.18418 z m 102.8866433,0.51084 c 0.3566371,-0.93859 1.1388513,-4.31203 1.7382524,-7.49653 1.8098981,-9.61561 3.4167162,-13.38139 6.0073433,-14.07898 1.8488024,-0.49783 3.9521199,0.0529 4.9248305,1.2895 0.9219212,1.17203 0.9096904,1.54188 -0.1181312,3.57162 -1.2048242,2.37928 -1.9249142,5.00877 -2.53276441,9.24869 -0.29207177,2.03729 -0.78631342,4.93448 -1.09831361,6.43819 l -0.56727017,2.73403 H -5.3843967 -9.8855834 Z m 32.7976747,1.3711 c 0,-1.64882 0.885268,-3.98641 1.801735,-4.75757 1.554018,-1.30762 2.908145,-1.39683 8.296465,-0.54658 7.295296,1.15117 12.075001,2.89454 13.845688,5.05015 0.450705,0.54868 -0.360034,0.58942 -11.729861,0.58942 -7.485958,0 -12.214027,-0.12984 -12.214027,-0.33542 z m 78.948402,-0.63472 c -1.10586,-1.17716 -3.737692,-5.25301 -4.966512,-7.69151 -1.470829,-2.91874 -3.292835,-8.56547 -3.953947,-12.254 -0.91409,-5.09997 -0.607498,-14.27662 0.63506,-19.00805 1.454019,-5.53663 4.270494,-11.41372 7.492879,-15.63527 l 1.25302,-1.64155 -1.5161,-1.38585 c -0.83386,-0.76222 -1.692134,-1.38585 -1.907286,-1.38585 -0.215149,0 -0.9617,0.85926 -1.659001,1.90947 -0.697297,1.05021 -1.791335,2.29828 -2.431196,2.7735 -4.939506,3.66853 -12.103929,1.06687 -13.33034,-4.84073 -0.816807,-3.93453 0.866229,-7.21491 6.536108,-12.73943 l 2.917821,-2.84302 -0.34842,-3.15421 c -0.191629,-1.7348 -0.295572,-4.61137 -0.230982,-6.39237 0.195863,-5.4007 1.201879,-6.06174 9.435906,-6.20026 4.41302,-0.0742 5.31257,0.005 6.31967,0.55419 1.41038,0.76961 2.51111,2.97274 2.52215,5.04815 l 0.008,1.45558 2.20486,-0.48662 c 1.21267,-0.26764 4.43547,-0.58844 7.16177,-0.7129 l 4.95688,-0.22628 -0.14672,-3.21212 c -0.0807,-1.76667 -0.25467,-3.84712 -0.38661,-4.62323 -0.21064,-1.23886 -0.34565,-1.39857 -1.10602,-1.30832 -3.499,0.41529 -8.11643,0.4581 -9.83097,0.0911 -5.1937,-1.11154 -10.11699,-4.9929 -13.427712,-10.58599 -1.281401,-2.16479 -1.990139,-3.06003 -2.182537,-2.75688 -0.156704,0.24691 -0.287351,1.65157 -0.290322,3.12146 -0.0048,2.3887 -0.09878,2.76026 -0.884632,3.49853 -1.237097,1.16219 -4.162161,1.36837 -5.699817,0.40176 -1.406588,-0.88422 -1.705112,-2.42223 -1.361006,-7.01196 0.340914,-4.54715 1.25651,-8.77614 2.775913,-12.82147 l 1.270572,-3.38283 -0.522178,-2.96717 c -0.287197,-1.63194 -0.524824,-4.1578 -0.528063,-5.61301 -0.0082,-3.70216 -0.160454,-3.82129 -2.664417,-2.08521 -1.151238,0.7982 -2.609099,1.94254 -3.239689,2.543 -1.110562,1.05749 -1.146528,1.18199 -1.146528,3.96897 0,2.41316 -0.13015,3.07058 -0.806919,4.07594 -1.301814,1.93387 -2.338052,2.25933 -7.130581,2.23957 -4.805941,-0.0198 -6.773964,-0.46523 -8.374528,-1.89533 -0.987188,-0.88205 -1.140795,-1.27819 -1.340509,-3.45701 -0.263956,-2.87972 -1.052435,-4.20648 -2.692802,-4.53111 -1.740959,-0.34453 -3.164184,0.13859 -4.33432,1.4713 -1.259762,1.43479 -1.247284,1.37535 -0.455757,2.17108 0.874134,0.87876 4.585141,19.62694 4.019786,20.30814 -0.217184,0.2617 -1.508142,0.68586 -2.868792,0.9426 -2.769951,0.52265 -2.718033,0.43149 -2.073504,3.64083 0.513567,2.55724 0.291126,2.81913 -2.906893,3.42256 l -2.515421,0.47462 0.243085,1.78767 c 0.133699,0.98321 0.318904,2.65913 0.411568,3.72425 0.292939,3.36724 2.18343,9.71775 3.548849,11.92126 2.149256,3.46846 4.718085,4.69538 7.17296,3.42591 1.262662,-0.65295 1.612632,-1.88353 1.894018,-6.6598 0.348601,-5.91719 1.398442,-7.00935 7.392165,-7.6902 6.280552,-0.71343 9.09006,0.23121 10.184793,3.42441 1.154948,3.36883 0.614994,11.4663 -1.069792,16.04322 -2.200687,5.97843 -7.034039,11.58916 -12.232128,14.19948 -3.008055,1.51056 -7.688202,2.49511 -10.933867,2.30013 l -2.824466,-0.16967 -1.866688,4.72148 c -1.026678,2.59681 -1.769173,4.87925 -1.649994,5.07209 0.263242,0.42594 3.399123,2.02711 6.515293,3.3267 2.844966,1.18647 3.880556,2.10525 3.880556,3.44281 0,1.39322 -0.534095,2.27798 -1.756826,2.91028 -1.833595,0.94819 -3.5699,0.6679 -7.626357,-1.23107 -2.07234,-0.97014 -3.88505,-1.76389 -4.028246,-1.76389 -0.143196,0 -1.350183,2.39999 -2.682191,5.33332 -1.40572,3.09565 -2.775951,5.61186 -3.26585,5.99722 -0.591524,0.46529 -1.41834,0.6639 -2.763852,0.6639 -1.651557,0 -2.06394,-0.1441 -2.951035,-1.0312 -0.567161,-0.56715 -1.031198,-1.37833 -1.031198,-1.80262 0,-0.42429 1.190625,-3.39224 2.645833,-6.59546 1.455209,-3.20321 2.645834,-6.02684 2.645834,-6.27474 0,-0.2479 -1.230313,-1.2078 -2.734028,-2.13311 -4.519457,-2.78104 -9.161364,-6.09035 -9.39431,-6.69739 -0.120385,-0.31372 -0.218884,-1.01956 -0.218884,-1.56853 0,-1.98056 3.30945,-3.69157 5.597507,-2.89395 0.566011,0.19731 2.11781,1.14701 3.448441,2.11045 3.689865,2.67162 6.13755,4.0838 6.477261,3.73702 0.689748,-0.7041 3.207752,-7.89669 2.932046,-8.3753 -0.15796,-0.27421 -1.186381,-1.22842 -2.285383,-2.12046 -3.41648,-2.77312 -6.895634,-7.95712 -9.425224,-14.04374 l -0.686375,-1.65153 -2.230663,0.52038 c -3.585679,0.83648 -3.879977,0.70752 -4.517958,-1.97982 -0.609032,-2.56541 -0.319602,-2.43569 -4.299941,-1.92721 -2.301303,0.29399 -2.527963,0.0838 -2.950746,-2.73573 -0.352206,-2.34891 -0.699403,-2.53136 -3.556303,-1.8688 -2.908282,0.67448 -3.140301,0.52017 -3.717618,-2.47248 -0.223693,-1.15955 -0.514823,-2.23083 -0.646956,-2.38061 -0.132129,-0.14978 -1.333905,-0.0431 -2.670609,0.23713 -1.51826,0.31825 -2.6515055,0.3911 -3.0195973,0.1941 -0.371923,-0.19905 -0.749487,-1.16469 -1.0237788,-2.61837 -0.4050453,-2.14667 -0.4980057,-2.30303 -1.3692045,-2.30303 -0.6056277,0 -1.1814634,0.33406 -1.6357494,0.94896 -0.3856002,0.52193 -1.4088745,1.91099 -2.2739385,3.0868 -2.26560229,3.07946 -8.2076922,8.85911 -11.5596631,11.24365 -5.7095074,4.06166 -13.1849244,7.35001 -20.2049904,8.88794 -3.66541,0.803 -13.390534,1.10005 -17.260294,0.52721 -5.460428,-0.80831 -11.156731,-2.89332 -15.568048,-5.69836 -3.073357,-1.95426 -3.113507,-1.90216 -0.503223,0.65302 1.361458,1.33271 3.732791,3.20683 5.269625,4.16469 l 2.794243,1.74158 3.492705,0.10289 c 4.504499,0.13269 13.906827,1.93952 16.443603,3.15994 l 1.900558,0.91434 2.847746,-0.61195 c 1.566259,-0.33657 4.341505,-1.15267 6.167219,-1.81355 6.062821,-2.19466 10.134896,-1.50034 13.563042,2.31258 2.1021177,2.33807 2.9065498,4.80692 2.607994,8.00409 -0.2531568,2.71101 -1.2129064,4.66687 -3.272113,6.66819 -2.23406,2.17126 -7.101307,3.78573 -14.337918,4.75591 l -3.086806,0.41384 v 1.11661 c 0,1.24335 -0.945433,2.71981 -4.762499,7.4375 -3.270342,4.04197 -7.572784,10.21608 -11.178942,16.04208 -1.612692,2.60541 -3.432232,5.26447 -4.043419,5.90902 -0.967962,1.0208 -1.337102,1.17191 -2.862841,1.17191 -1.237865,0 -2.024214,-0.21444 -2.681111,-0.73116 -1.153608,-0.90743 -1.182243,-1.86109 -0.253443,-8.44106 0.369736,-2.61938 0.748574,-5.42174 0.841859,-6.22748 l 0.169605,-1.46497 -1.564213,-0.23457 c -2.483362,-0.3724 -5.062217,-3.04508 -5.062217,-5.24639 0,-0.64056 -0.24305,-0.92222 -0.948623,-1.0993 -0.52174,-0.13095 -1.374662,-0.54146 -1.895383,-0.91225 l -0.946764,-0.67415 -0.610129,1.5976 c -0.69989,1.83264 -2.636287,3.86641 -4.371661,4.59149 -1.541035,0.64389 -5.272634,0.63928 -6.794775,-0.008 -2.86948,-1.22095 -4.872312,-4.2817 -4.886028,-7.46688 -0.01436,-3.33222 1.384698,-5.82774 4.192594,-7.47845 1.343851,-0.79003 2.042065,-0.95264 4.089936,-0.95252 3.005512,1.8e-4 5.009691,0.97373 6.774864,3.29095 0.70804,0.92948 1.220481,1.3437 1.309296,1.05834 1.540807,-4.9506 2.505223,-9.19993 2.175962,-9.58754 -0.210288,-0.24755 -1.334072,-1.07525 -2.497289,-1.83933 -3.164103,-2.07838 -10.618615,-9.68382 -12.973501,-13.23616 -3.809796,-5.74707 -6.651809,-12.37621 -7.887646,-18.39833 -0.670768,-3.26859 -0.836686,-10.15282 -0.349807,-14.51393 0.575765,-5.15727 -1.210289,-2.24165 -2.566561,4.18975 -0.971779,4.60814 -1.178859,7.77143 -0.741429,11.32574 0.977071,7.93914 3.526666,14.02322 8.458552,20.18461 3.028583,3.7836 3.358812,4.60558 3.355996,8.35354 -0.0021,2.58975 -0.145122,3.44268 -0.776742,4.62719 -1.25893,2.36095 -2.469684,3.5569 -4.75912,4.70094 -2.864806,1.43157 -6.559416,1.52506 -9.27813,0.2348 -5.207264,-2.47128 -11.388487,-13.48689 -13.977147,-24.90876 -0.74909,-3.30517 -0.83835,-4.54017 -0.8287,-11.46528 0.009,-6.62149 0.12156,-8.25321 0.76507,-11.1125 1.49813,-6.6567 4.09641,-13.03424 7.277551,-17.8629 0.906371,-1.37578 1.647949,-2.60045 1.647949,-2.72147 0,-0.12103 -0.515938,-0.45711 -1.146528,-0.74686 -0.63059,-0.28974 -1.41339,-0.72071 -1.739551,-0.95771 -0.504051,-0.36627 -0.862431,-0.17892 -2.388721,1.24875 -2.44061,2.2829 -3.82474,2.82604 -7.24881,2.84442 -2.28455,0.0123 -3.15309,-0.14648 -4.55892,-0.83331 -3.41309,-1.66749 -5.54706,-4.62384 -6.04298,-8.37184 -0.52849,-3.9942 1.2396,-7.47029 6.63823,-13.05079 l 3.25297,-3.36256 -0.11662,-5.70008 c -0.133,-6.50097 0.42979,-10.7498 2.10216,-15.87048 3.50706,-10.73833 11.719372,-20.3074 21.31159,-24.83249 4.371781,-2.06237 7.950401,-2.92589 13.132318,-3.16883 2.37684,-0.11144 4.321527,-0.33214 4.321527,-0.49046 0,-0.9822 -8.162579,-1.862862 -12.45145,-1.343391 -9.790045,1.185781 -17.916566,6.174581 -23.331855,14.323241 -1.99104,2.99601 -3.57526,4.19529 -6.25201,4.73286 -5.24782,1.05391 -9.82302,-2.71705 -9.82302,-8.09631 0,-2.71059 0.55926,-4.08894 2.80336,-6.90914 4.71873,-5.930107 11.39297,-10.852108 18.655674,-13.757866 20.634177,-8.255587 45.019153,0.231047 53.518014,18.625716 0.67069,1.45162 1.489043,3.76268 1.818566,5.13569 0.807219,3.3634 1.329841,3.2173 1.037343,-0.29001 -0.674261,-8.08499 -4.214587,-15.398891 -10.211124,-21.095017 -3.503454,-3.327936 -7.208393,-5.468015 -12.201574,-7.047974 -4.22807,-1.33786 -6.188449,-2.617257 -7.297988,-4.76287 l -0.515387,-0.99665 h 14.261161 14.261157 l 1.83152,2.003972 c 8.07937,8.840119 12.368032,22.189729 10.975813,34.165159 -0.226004,1.94401 -0.644067,4.40405 -0.92903,5.46674 l -0.518114,1.93219 1.499055,1.31239 c 0.82448,0.72181 1.691114,1.31712 1.925853,1.32291 0.501667,0.0124 1.708714,-3.70021 2.212777,-6.80597 0.194539,-1.19863 0.354905,-4.18527 0.356372,-6.63697 0.0025,-4.19022 0.06178,-4.57115 0.988127,-6.35 1.402687,-2.69355 3.910609,-4.18542 7.035955,-4.18542 2.611191,0 4.392006,0.65485 6.044576,2.22274 1.939727,1.84033 2.498153,3.46793 2.505396,7.30226 0.01556,8.23537 -2.869117,17.66372 -7.486212,24.46818 -1.556812,2.29436 -1.596563,1.86475 0.526915,5.69432 1.172267,2.11411 3.199762,6.70877 3.615846,8.19414 0.121066,0.4322 0.763121,1.43574 1.426788,2.2301 1.586096,1.89843 2.124495,3.88601 1.61985,5.97993 -0.210425,0.87312 -0.431804,5.00062 -0.491945,9.17222 -0.118357,8.20911 -0.449079,10.45052 -2.420469,16.40417 -1.900198,5.73864 -5.239331,11.49395 -8.808797,15.18279 -2.893959,2.99075 -0.98352,3.13879 2.443381,0.18934 4.526143,-3.89553 8.237442,-8.99595 10.32377,-14.1879 2.0297492,-5.05115 2.4809731,-7.54056 2.740427,-15.11896 0.2230156,-6.51403 0.3254446,-7.37985 1.0318256,-8.72188 0.996629,-1.89346 2.8508536,-3.75134 4.7575716,-4.76695 2.15328137,-1.14694 7.1763711,-1.14706 9.3294338,-2.2e-4 3.337214,1.77758 5.495516,4.75524 5.954465,8.21498 l 0.220095,1.65915 3.029267,-0.66198 c 4.915641,-1.07421 4.994152,-1.03655 5.548708,2.6615 0.137862,0.91933 0.45612,1.75036 0.707242,1.84672 0.484339,0.18586 9.93141,-1.7708 10.29234,-2.13173 0.116794,-0.11679 0.01475,-1.31814 -0.22679,-2.66967 -0.241533,-1.35152 -0.349186,-2.60287 -0.239233,-2.78078 0.109951,-0.17791 0.896165,-0.49878 1.747139,-0.71306 1.417299,-0.35688 1.612135,-0.54568 2.320146,-2.24825 4.180525,-10.05305 11.47737,-17.5181 19.957121,-20.41718 3.500624,-1.1968 8.831908,-1.19934 12.347222,-0.006 5.647595,1.91739 9.966642,5.88881 12.328352,11.3361 0.377677,0.87111 0.712632,1.62776 0.744347,1.68143 0.03171,0.0537 0.913327,-0.47919 1.959144,-1.18414 4.22639,-2.84886 9.928927,-5.08706 12.960928,-5.08706 1.339882,0 2.002067,0.20086 2.76002,0.83719 0.54846,0.46045 1.71158,0.95513 2.58471,1.0993 1.82647,0.30157 2.67857,0.68245 3.78887,1.69359 0.67183,0.61185 0.92544,0.6581 1.69231,0.30869 1.72649,-0.78665 3.30288,-0.51694 4.60826,0.78845 1.95824,1.95823 1.62574,3.16436 -1.51733,5.50458 -1.12515,0.83772 -2.10534,1.57052 -2.17826,1.62843 -0.23072,0.18332 0.70887,5.86111 1.36493,8.24811 0.34664,1.26118 0.72154,2.69537 0.83309,3.1871 0.19533,0.86103 1.88249,4.57537 2.85298,6.28095 0.25816,0.45375 1.01625,1.21408 1.68462,1.68963 0.9634,0.68546 1.39202,0.79703 2.06855,0.5384 2.96506,-1.13349 3.41577,-5.83519 1.74688,-18.22247 -1.88962,-14.02558 -1.8838,-14.84759 0.12072,-17.05234 1.20569,-1.32615 2.80497,-1.78257 7.79378,-2.22424 l 4.69533,-0.41569 1.61742,0.94787 c 1.80985,1.06065 3.40007,3.39922 3.40007,5.00017 0,0.55575 0.30836,2.84367 0.68527,5.08428 1.85812,11.04633 3.64949,24.38603 4.29994,32.02029 0.23505,2.75874 0.51922,5.15854 0.6315,5.33288 0.11226,0.17435 1.47412,0.92521 3.02634,1.66858 1.55223,0.74338 2.91973,1.40555 3.0389,1.47151 0.11914,0.066 0.32502,-2.38643 0.45745,-5.44975 0.4076,-9.42779 2.24617,-18.29356 5.37778,-25.93196 1.02768,-2.50666 1.04895,-3.05462 0.0847,-2.18197 -1.14826,1.03915 -4.21203,0.93526 -5.40258,-0.18321 -1.07929,-1.01393 -1.13634,-1.95771 -0.3961,-6.55309 0.81449,-5.0564 1.66962,-12.54511 1.48688,-13.02127 -0.0921,-0.24 -2.24694,-1.11617 -4.78857,-1.94703 -5.96861,-1.95116 -6.55295,-2.526 -6.28865,-6.18655 0.45272,-6.27051 7.41518,-24.83647 9.93253,-26.48589 1.30831,-0.85724 5.87964,-0.53566 12.68959,0.89268 10.08017,2.11425 10.81582,3.29414 7.7638,12.45184 -0.8914,2.67463 -1.54168,5.06891 -1.44509,5.32063 0.0966,0.25172 1.18311,0.82473 2.41445,1.27335 2.87119,1.04606 3.65933,1.57657 4.16853,2.80588 0.60741,1.46638 -0.0357,3.36962 -1.91587,5.66997 -4.75541,5.81816 -11.37384,15.03951 -11.03644,15.37691 0.10449,0.10452 1.22682,-0.79185 2.494,-1.99193 1.26718,-1.20008 2.61087,-2.36108 2.98602,-2.58 5.47634,-3.19576 8.4177,-4.14354 13.5414,-4.36335 3.56119,-0.15278 4.4679,-0.0712 6.70278,0.60276 1.42149,0.42869 3.41221,1.24993 4.4238,1.82498 2.33144,1.3253 5.4399,4.74517 6.86742,7.55538 1.08899,2.14373 1.11693,2.16718 2.01962,1.69614 2.06304,-1.07654 5.54542,-0.11615 6.17625,1.70332 0.26526,0.76495 0.11603,1.41949 -0.76404,3.35139 -1.40406,3.08215 -1.67933,4.17999 -2.54808,10.16218 -1.22922,8.4643 -2.76292,12.02075 -7.06406,16.38052 -6.00974,6.09165 -13.06787,8.7371 -22.46086,8.41854 l -4.70303,-0.15953 0.007,1.26203 c 0.0155,2.74335 1.43478,11.64231 2.26473,14.20133 0.48316,1.48981 1.35738,3.48708 1.94274,4.43839 1.52245,2.4743 3.09277,3.03559 6.03032,2.15548 1.98254,-0.59399 2.57651,-2.17709 2.61743,-6.9763 0.0362,-4.23993 0.34855,-5.06383 2.40083,-6.33222 1.6728,-1.03385 6.29916,-1.50472 10.70232,-1.08927 6.55599,0.61855 7.69698,2.92455 6.32679,12.78712 -1.10021,7.91945 -3.21183,12.95788 -7.24736,17.29236 l -2.35768,2.53237 -0.22127,3.52777 c -0.9483,15.118 -10.56918,29.47742 -24.40633,36.42711 -6.02636,3.02674 -12.20607,4.44218 -19.40277,4.44415 -7.74136,0.002 -13.52959,-1.67564 -19.45993,-5.64061 -1.86489,-1.24685 -3.46897,-2.18877 -3.56461,-2.09315 -0.3436,0.3436 4.64799,5.15037 7.10745,6.84432 5.07284,3.49387 10.45764,5.31512 16.57117,5.6047 4.92048,0.23307 7.69878,-0.18131 12.66007,-1.88824 1.90002,-0.65371 4.02883,-1.18855 4.73068,-1.18855 3.08402,0 6.15593,1.90374 7.6037,4.71221 1.52636,2.96098 0.71914,7.55278 -1.73161,9.84975 l -1.0456,0.98003 -17.08012,-0.0981 -17.08009,-0.0981 -2.39459,-1.17092 c -6.28777,-3.07462 -12.96211,-8.75956 -16.7665,-14.28102 -2.56529,-3.72319 -5.19652,-9.36796 -6.30827,-13.53327 -0.79495,-2.97852 -0.92999,-4.2203 -0.95274,-8.76201 -0.0226,-4.53728 0.0925,-5.71916 0.80821,-8.29028 0.45911,-1.64924 0.90389,-3.39549 0.98841,-3.88056 0.15092,-0.86586 0.14313,-0.86908 -0.42675,-0.17639 -1.93792,2.3556 -4.18804,8.82755 -4.75615,13.67997 -0.93493,7.98571 1.58778,16.53914 6.75837,22.91462 2.36566,2.91692 3.10078,4.5758 3.1103,7.01858 0.009,2.23595 -0.58885,3.93816 -1.95082,5.55675 l -0.92636,1.10092 h -5.37069 -5.3707 l -0.91137,-0.97014 z m 38.21686,-28.46506 c 6.8581,-1.45367 12.28418,-6.85484 13.93221,-13.86827 2.15918,-9.18858 -4.56575,-19.03647 -14.29138,-20.92808 l -2.2564,-0.43886 -0.98876,1.20256 c -1.16699,1.41932 -1.91372,2.72433 -1.68801,2.95003 0.0886,0.0886 0.78994,-0.063 1.55864,-0.33676 1.65964,-0.59112 5.45084,-0.6728 7.30663,-0.15743 1.78816,0.4966 1.7157,1.37032 -0.18867,2.27451 -1.94116,0.92165 -3.07453,2.63794 -3.07453,4.6558 0,3.00619 2.07324,5.39607 4.91833,5.66945 2.18849,0.21028 3.56506,-0.32438 4.9778,-1.93338 0.70608,-0.80417 1.26608,-1.14865 1.63636,-1.00657 0.47162,0.18098 0.52853,0.62618 0.35083,2.74547 -0.38632,4.60809 -2.83407,8.23087 -6.91776,10.23864 -2.41331,1.1865 -6.90051,1.3004 -9.7102,0.24647 -2.53828,-0.95211 -5.18083,-3.31008 -6.49126,-5.79223 -0.83957,-1.59029 -0.93493,-2.1486 -0.93493,-5.47504 0,-3.36523 0.0865,-3.8575 0.9453,-5.37986 0.67388,-1.19457 0.80649,-1.6757 0.46179,-1.6757 -0.26592,0 -0.57527,0.14851 -0.68746,0.33001 -0.41201,0.66665 -4.05151,2.07188 -6.49887,2.50924 l -2.5176,0.44992 -0.52588,1.77084 c -0.28925,0.97395 -0.52589,3.07467 -0.52589,4.66825 0,6.92958 3.69595,12.75316 10.05417,15.84197 3.89174,1.8906 7.08296,2.30226 11.15554,1.43902 z m 17.89705,-1.07987 c 9.32797,-4.91142 16.06317,-14.8566 16.86683,-24.90551 l 0.21435,-2.6803 -1.15055,-0.23012 c -0.63281,-0.12656 -1.59727,-0.23011 -2.1432,-0.23011 -0.91941,0 -1.0082,0.12362 -1.20353,1.67569 -0.43413,3.449 -2.01422,9.52729 -3.15348,12.13071 -2.30512,5.26761 -6.01994,10.08365 -10.22837,13.26049 -2.88699,2.17931 -2.9209,2.21366 -2.18303,2.21366 0.34996,0 1.6914,-0.55553 2.98098,-1.23451 z m 1.33487,-29.03097 c -0.31609,-3.79039 -1.40042,-7.45796 -2.97268,-10.05484 -0.72909,-1.20417 -1.87752,-3.30065 -2.55213,-4.65884 -1.46865,-2.95689 -5.33312,-6.99431 -8.90997,-9.30871 -1.31547,-0.85117 -2.4486,-1.48617 -2.51809,-1.41111 -0.0695,0.0751 -0.23689,1.26007 -0.37197,2.63333 l -0.24564,2.49686 2.41095,1.55955 c 3.26006,2.1088 7.76154,6.61549 9.91337,9.92484 1.89488,2.91416 3.59495,6.71927 4.34079,9.71565 0.69124,2.77696 1.17204,2.30074 0.90537,-0.89673 z M -47.719034,204.75702 c 2.107918,-0.57973 5.689237,-2.28551 7.073999,-3.36935 0.485069,-0.37966 1.199444,-1.34033 1.5875,-2.13484 0.388055,-0.7945 0.983368,-1.57394 1.322916,-1.7321 0.339549,-0.15815 0.887892,-0.41932 1.218537,-0.58037 0.987301,-0.4809 2.88399,-4.34323 3.681437,-7.4967 0.578929,-2.28937 0.703333,-3.58425 0.555523,-5.78231 -0.203377,-3.02433 -1.213531,-6.70783 -2.341619,-8.53864 l -0.690224,-1.12019 -1.846474,0.48709 c -1.904697,0.50245 -5.323607,1.04876 -8.867457,1.41693 -1.71086,0.17775 -2.028472,0.31944 -2.028472,0.90497 0,1.19146 1.347787,3.40413 2.703311,4.43804 1.097975,0.83747 1.634116,0.99058 3.468687,0.99058 2.484349,0 4.076637,-0.84563 5.403384,-2.8696 1.497112,-2.28387 2.897897,-1.1772 2.879881,2.2752 -0.03214,6.15923 -4.211162,12.14937 -9.869153,14.14627 -3.701284,1.30631 -8.602919,1.07274 -11.994444,-0.57156 -2.322565,-1.12603 -5.604252,-4.29401 -6.70211,-6.46987 -0.436122,-0.86436 -0.82919,-1.61408 -0.873489,-1.66606 -0.04429,-0.052 -0.54072,0.14548 -1.103164,0.4388 -2.185966,1.13999 -5.261483,0.34482 -6.366199,-1.64596 -0.619595,-1.11656 -0.589795,-3.63103 0.05788,-4.88349 0.814405,-1.57489 2.381518,-2.22654 4.822236,-2.00523 1.843126,0.16713 2.050958,0.11825 2.050958,-0.48234 0,-0.36758 0.311622,-1.48844 0.692492,-2.49081 0.682427,-1.796 0.672856,-2.41841 -0.03718,-2.41841 -0.198762,0 -1.549873,-0.47589 -3.002467,-1.05754 -1.846763,-0.73948 -2.819333,-0.9612 -3.233765,-0.7372 -1.019405,0.55099 -2.97446,4.20495 -3.829664,7.15759 -4.452264,15.37165 9.898796,30.02371 25.267143,25.7971 z M 180.52796,182.92834 c 4.70634,-1.10929 9.38555,-4.27681 11.57379,-7.83473 0.85348,-1.38764 2.55599,-5.33059 2.55599,-5.9195 0,-0.0897 -1.07157,-0.16694 -2.38125,-0.17157 -3.42601,-0.0121 -4.95876,-0.46417 -6.37473,-1.88014 -1.02856,-1.02856 -1.28076,-1.59497 -1.53367,-3.44416 -0.50207,-3.67129 -1.74639,-4.71428 -4.60319,-3.85836 -4.15025,1.24344 -7.8674,8.37386 -9.27583,17.79333 -0.78676,5.26195 -0.83965,5.04502 1.3263,5.44004 2.83154,0.51641 6.19637,0.46816 8.71259,-0.12491 z M -26.540853,167.36536 c -0.487649,-3.23153 -1.764334,-7.46718 -3.224989,-10.69954 -1.155911,-2.55798 -3.497142,-6.34425 -3.925887,-6.349 -0.509711,-0.006 -3.072751,1.41776 -3.072751,1.70648 0,0.15626 0.405518,0.66508 0.901153,1.13071 1.6972,1.59443 5.249231,6.50753 6.516941,9.01409 0.697012,1.37816 1.653967,3.78655 2.126563,5.35197 0.472598,1.56543 0.912551,2.79294 0.977677,2.72782 0.06512,-0.0651 -0.06929,-1.36227 -0.298707,-2.88253 z m -57.412021,-5.05718 c 0.725202,-0.48507 1.320515,-1.05482 1.322917,-1.26611 0.0068,-0.60269 -1.884761,-2.94007 -2.390937,-2.95437 -0.675979,-0.0191 -3.24914,1.36091 -3.24914,1.74254 0,0.18147 0.396875,0.91477 0.881945,1.62956 0.485069,0.71479 0.881944,1.51047 0.881944,1.76818 0,0.56869 0.71066,0.31268 2.553271,-0.9198 z m 20.172348,-7.32958 c 0.662647,-0.39673 -2.88285,-1.12613 -5.439509,-1.11905 l -2.645833,0.007 1.058334,0.88539 c 1.000005,0.83658 1.213876,0.87257 3.880555,0.65291 1.552222,-0.12786 2.968127,-0.31982 3.146453,-0.42659 z m 18.630515,-12.46693 c 1.994524,-1.00683 2.123062,-1.13923 1.528297,-1.57413 -0.568819,-0.41593 -0.842204,-0.33637 -2.203672,0.64136 -3.131259,2.24871 -2.810119,2.69224 0.675375,0.93277 z m -48.831636,-1.20805 1.358223,-0.54346 0.0038,-5.54196 c 0.0035,-4.86319 0.113788,-5.93084 0.901545,-8.71696 0.493737,-1.74625 1.007332,-3.57188 1.141324,-4.05695 l 0.243618,-0.88194 -0.785936,0.88194 c -1.080851,1.21289 -2.956871,5.33545 -3.863647,8.4904 -0.874236,3.0417 -1.416082,10.91238 -0.751258,10.91238 0.216736,0 1.005265,-0.24455 1.752286,-0.54345 z m 40.241296,-2.63116 c 0.799508,-0.7759 1.453649,-1.55381 1.453649,-1.7287 0,-0.17489 -0.833437,-0.51761 -1.852083,-0.76159 -1.018646,-0.24398 -2.346512,-0.64983 -2.95081,-0.90189 -0.834083,-0.34791 -1.428884,-0.36711 -2.469444,-0.0797 -2.058127,0.5684 -5.721184,0.18466 -7.93031,-0.83077 -2.53425,-1.16488 -4.029347,-2.47922 -5.248592,-4.61404 l -1.00698,-1.76315 -2.235471,-0.0615 c -2.635039,-0.0725 -4.593005,-0.9593 -6.226849,-2.82014 -0.606291,-0.69053 -1.186575,-1.25551 -1.289516,-1.25551 -0.10294,0 -0.187166,1.09453 -0.187166,2.43228 0,3.08605 0.991059,6.33343 2.77543,9.0942 l 1.374732,2.12698 5.950613,0.008 c 6.16355,0.008 10.109962,0.50411 14.593669,1.83271 3.241047,0.96037 3.610747,0.91267 5.249128,-0.67733 z m -2.628646,-23.04787 c 0.956197,-0.32375 2.265885,-0.58863 2.910417,-0.58863 0.644532,0 1.171878,-0.14028 1.171878,-0.31173 0,-0.45606 -2.631394,-2.75771 -4.530181,-3.96249 -5.052656,-3.20592 -12.991814,-3.35466 -17.814911,-0.33378 l -1.00204,0.62762 1.661012,0.41824 c 0.913553,0.23004 2.209239,0.79078 2.879294,1.2461 l 1.218286,0.82785 2.003298,-1.02362 c 2.430121,-1.24171 5.572436,-1.64077 8.115685,-1.03066 2.685961,0.64435 2.947112,1.22643 0.96769,2.15687 -2.384813,1.121 -4.016939,3.91129 -3.482735,5.95409 0.147994,0.56593 0.487708,0.35297 2.169619,-1.36011 1.395042,-1.4209 2.516466,-2.20796 3.732688,-2.61975 z M 205.47898,291.16027 c -0.0861,-0.14553 -0.26356,-0.91207 -0.3944,-1.70344 -0.17198,-1.04034 -0.10019,-1.55311 0.25918,-1.85137 0.27337,-0.22689 4.6742,-1.30781 9.77964,-2.40205 10.47252,-2.24456 9.92797,-2.28723 10.39311,0.8144 0.34258,2.28462 0.50867,2.58482 1.42992,2.58482 1.26319,0 9.12202,-1.76228 9.48975,-2.12801 0.20084,-0.19974 0.15939,-1.23511 -0.10735,-2.68285 -0.35313,-1.91645 -0.34829,-2.44092 0.0258,-2.80301 0.25308,-0.24499 4.58667,-1.3204 9.63019,-2.3898 10.41319,-2.20794 10.16477,-2.22748 10.58563,0.83239 0.3587,2.60806 0.64484,2.81465 3.27028,2.36113 1.82912,-0.31597 2.29719,-0.29394 2.70345,0.12721 0.27022,0.28013 0.83276,2.25558 1.25006,4.38988 0.41731,2.13431 0.83866,4.15837 0.93631,4.49792 0.16814,0.58447 -1.4012,0.61736 -29.45871,0.61736 -16.29995,0 -29.70671,-0.11906 -29.79278,-0.26458 z m 88.7972,-1.95278 c 2.00388,-5.32384 4.98411,-9.93595 9.34032,-14.45482 3.30355,-3.42693 7.08286,-6.38144 8.63995,-6.75435 2.17456,-0.5208 4.82427,1.28574 4.80734,3.27758 -0.01,1.15302 -0.73604,2.03573 -3.01837,3.66878 -4.26946,3.05488 -9.05221,9.10564 -11.28374,14.27531 l -0.95172,2.20486 h -4.18419 -4.18419 z m 102.88665,0.51084 c 0.35662,-0.93859 1.13883,-4.31203 1.73824,-7.49653 1.80993,-9.61561 3.41672,-13.38139 6.00735,-14.07898 1.8488,-0.49783 3.95213,0.0529 4.92484,1.2895 0.92192,1.17203 0.90968,1.54188 -0.11814,3.57162 -1.20481,2.37928 -1.9249,5.00877 -2.53277,9.24869 -0.29206,2.03729 -0.78631,4.93448 -1.0983,6.43819 l -0.56727,2.73403 h -4.5012 -4.50119 z m 32.79768,1.3711 c 0,-1.64882 0.88526,-3.98641 1.80174,-4.75757 1.55402,-1.30762 2.90812,-1.39683 8.29645,-0.54658 7.2953,1.15117 12.07502,2.89454 13.84568,5.05015 0.45071,0.54868 -0.36001,0.58942 -11.72986,0.58942 -7.48595,0 -12.21401,-0.12984 -12.21401,-0.33542 z m 78.94838,-0.63472 c -1.10585,-1.17716 -3.73768,-5.25301 -4.96648,-7.69151 -1.47083,-2.91874 -3.29286,-8.56547 -3.95397,-12.254 -0.91676,-5.11492 -0.60773,-14.27537 0.64224,-19.03624 2.01259,-7.66583 5.957,-14.5552 11.47981,-20.05089 3.62109,-3.6033 6.30068,-5.5847 10.17037,-7.52038 2.62802,-1.31456 6.24032,-2.58002 8.3095,-2.91098 l 1.32292,-0.21159 v 5.27526 c 0,5.25175 -0.004,5.27907 -0.93214,6.1305 -1.54055,1.41342 -3.61986,4.89353 -4.36475,7.30516 -0.94082,3.04604 -0.93729,7.34881 0.008,10.41096 0.73244,2.37136 2.78377,5.78197 4.37727,7.2777 0.87619,0.82248 0.91111,1.00913 0.91111,4.87152 0,2.9766 -0.10685,3.95024 -0.41271,3.76119 -0.29845,-0.18444 -0.32286,-0.0681 -0.0882,0.42015 0.17847,0.37138 0.36967,4.53716 0.42485,9.2573 l 0.10029,8.58206 -1.26083,-0.9617 c -3.20015,-2.44086 -7.50104,-8.28983 -10.10666,-13.74449 -2.72334,-5.70104 -3.58154,-9.46856 -3.61357,-15.86349 -0.0226,-4.53728 0.0925,-5.71916 0.80821,-8.29028 0.45911,-1.64924 0.90389,-3.39549 0.98842,-3.88056 0.15091,-0.86586 0.14312,-0.86908 -0.42676,-0.17639 -1.93791,2.3556 -4.18804,8.82755 -4.75615,13.67997 -0.93493,7.98571 1.58778,16.53914 6.75838,22.91462 2.36565,2.91692 3.10077,4.5758 3.1103,7.01858 0.009,2.23595 -0.58886,3.93816 -1.95083,5.55675 l -0.92636,1.10092 h -5.37069 -5.37069 l -0.9114,-0.97014 z m -731.66086,-8.88527 c -4.17111,-1.33715 -5.9061,-6.81018 -3.22339,-10.1682 1.57151,-1.96709 3.05148,-2.61597 5.6359,-2.47102 1.72042,0.0965 2.43216,0.32696 3.4815,1.12733 2.72342,2.07725 3.39331,6.0887 1.49564,8.95627 -1.43151,2.16315 -4.88656,3.35804 -7.38965,2.55562 z m 406.4,0 c -4.17113,-1.33715 -5.90613,-6.81018 -3.2234,-10.1682 1.57152,-1.96709 3.05146,-2.61597 5.63591,-2.47102 1.72039,0.0965 2.43216,0.32696 3.48149,1.12733 2.72341,2.07725 3.3933,6.0887 1.49564,8.95627 -1.4315,2.16315 -4.88657,3.35804 -7.38964,2.55562 z m -309.39183,-0.57228 c -1.16576,-0.63263 -1.68457,-1.52929 -1.68457,-2.91142 0,-0.85418 0.61415,-1.6245 3.46389,-4.34472 3.95696,-3.77711 7.72999,-6.19026 12.45166,-7.96379 4.03586,-1.51592 6.1499,-1.79933 7.64705,-1.02512 1.27552,0.6596 1.8374,1.53427 1.8374,2.86024 0,1.67428 -0.59332,2.19822 -3.6122,3.18975 -3.06511,1.00672 -7.07375,2.87135 -8.89117,4.13574 -0.59321,0.41271 -2.2692,1.89874 -3.7244,3.30229 -3.45991,3.33707 -5.22274,3.98616 -7.48766,2.75703 z m 406.39997,0 c -1.16575,-0.63263 -1.68455,-1.52929 -1.68455,-2.91142 0,-0.85418 0.61415,-1.6245 3.46389,-4.34472 3.95697,-3.77711 7.73,-6.19026 12.45164,-7.96379 4.03589,-1.51592 6.14991,-1.79933 7.64706,-1.02512 1.27554,0.6596 1.83741,1.53427 1.83741,2.86024 0,1.67428 -0.59334,2.19822 -3.6122,3.18975 -3.06511,1.00672 -7.07376,2.87135 -8.89116,4.13574 -0.59323,0.41271 -2.26921,1.89874 -3.72442,3.30229 -3.4599,3.33707 -5.22273,3.98616 -7.48767,2.75703 z m 71.88045,-4.79625 c -0.91645,-0.72089 -0.95765,-0.87996 -0.79957,-3.08681 0.0917,-1.27971 0.59093,-5.49912 1.10952,-9.37646 0.84515,-6.31913 0.88632,-7.09106 0.39722,-7.4487 -0.3001,-0.21944 -2.39183,-1.01582 -4.64827,-1.76973 -2.64364,-0.88329 -4.47798,-1.71828 -5.15817,-2.34799 -1.03519,-0.9584 -1.05209,-1.02987 -0.87549,-3.70417 0.30254,-4.58151 3.44509,-14.32689 7.16767,-22.22759 2.34466,-4.97624 2.60484,-5.13243 7.73991,-4.64661 1.91322,0.18101 3.76639,0.42045 4.11815,0.5321 0.96178,0.30525 0.78638,-0.19736 -0.81054,-2.32263 -3.21018,-4.27235 -5.35619,-10.08663 -7.0932,-19.21775 -0.72351,-3.80347 -0.80529,-5.27951 -0.80529,-14.53606 v -10.30274 l -1.41111,-0.20876 c -0.77611,-0.11482 -2.17374,-0.37805 -3.10585,-0.58494 -0.93211,-0.2069 -1.79017,-0.28075 -1.9068,-0.16411 -0.3071,0.3071 -1.12,31.03966 -1.14424,43.25911 -0.012,5.94598 -0.17543,10.96426 -0.38177,11.70711 -0.19862,0.71508 -1.0528,2.06446 -1.89819,2.99861 l -1.53709,1.69845 -8.41859,0.11554 c -10.07946,0.13834 -11.32935,-0.0594 -13.64988,-2.15987 -0.90633,-0.82038 -1.64786,-1.66876 -1.64786,-1.8853 0,-0.21654 -0.23813,-0.59133 -0.52917,-0.83287 -0.44704,-0.37103 -0.52917,-0.29831 -0.52917,0.4686 0,1.72936 -0.78302,4.54776 -1.44833,5.21306 -0.43857,0.43859 -1.16554,0.66834 -2.11472,0.66834 -1.18385,0 -1.6715,-0.22511 -2.68658,-1.2402 -1.23088,-1.23087 -1.23864,-1.25803 -1.03071,-3.61597 0.66297,-7.51809 0.65369,-10.1121 -0.0482,-13.48828 -0.38319,-1.84326 -1.10702,-4.30389 -1.60849,-5.46805 l -0.91179,-2.11667 -0.0145,1.67582 c -0.008,0.92171 0.15995,4.85312 0.37321,8.73647 l 0.38767,7.06065 -0.82864,1.67047 c -1.26447,2.54899 -2.94182,3.25798 -7.70785,3.25798 -4.73198,0 -6.4457,-0.71455 -7.6812,-3.20275 -0.79252,-1.59607 -0.80652,-1.86218 -1.17807,-22.40139 -0.39903,-22.05885 -0.28314,-59.52755 0.18729,-60.56183 0.24088,-0.52962 0.0874,-0.6177 -1.07985,-0.61969 -2.48081,-0.004 -4.32305,-1.82587 -4.34679,-4.29818 -0.0243,-2.54252 2.97671,-9.52901 5.80542,-13.51477 2.00007,-2.81817 4.86629,-5.46806 5.91449,-5.46806 1.9219,0 2.19139,1.77326 0.63871,4.20245 -1.5729,2.46086 -2.82632,6.6583 -3.27787,10.97723 -0.2219,2.12205 -0.31362,3.94808 -0.20384,4.05785 0.31041,0.31042 2.09035,-0.23101 2.21541,-0.6739 0.0614,-0.21757 0.37642,-2.11939 0.69998,-4.22628 2.13082,-13.8751 11.05338,-26.2691 22.95247,-31.88245 4.37179,-2.06237 7.95041,-2.92589 13.13233,-3.16883 2.37684,-0.11144 4.32152,-0.33214 4.32152,-0.49046 0,-0.9822 -8.16257,-1.862862 -12.45146,-1.343391 -9.79005,1.185781 -17.91656,6.174581 -23.33184,14.323241 -1.99105,2.99601 -3.57527,4.19529 -6.252,4.73286 -5.24782,1.05391 -9.82303,-2.71705 -9.82303,-8.09631 0,-2.71059 0.55926,-4.08894 2.80335,-6.90914 4.71875,-5.930107 11.39296,-10.852108 18.6557,-13.757866 20.63415,-8.255587 45.01913,0.231047 53.51801,18.625716 0.67067,1.45162 1.48904,3.76268 1.81853,5.13569 0.80723,3.3634 1.32987,3.2173 1.03738,-0.29001 -0.67426,-8.08499 -4.2146,-15.398891 -10.21115,-21.095017 -3.50344,-3.327936 -7.20838,-5.468015 -12.20156,-7.047974 -4.22808,-1.33786 -6.18846,-2.617257 -7.29798,-4.76287 l -0.51541,-0.99665 h 14.26118 14.26115 l 1.83151,2.003972 c 8.09918,8.861768 12.3685,22.185859 10.96822,34.230579 -1.27216,10.94277 -5.96922,19.63368 -13.93674,25.78706 -1.14935,0.88766 -1.90277,1.67625 -1.67424,1.75242 0.58942,0.19649 5.37866,-2.45169 7.79127,-4.30814 4.07885,-3.13862 7.86645,-8.04271 9.88952,-12.80483 1.76714,-4.15955 2.21658,-6.54109 2.44796,-12.97078 0.20659,-5.74133 0.25788,-6.06881 1.20199,-7.67496 2.65349,-4.5141 9.49526,-5.17559 13.19523,-1.27576 1.74226,1.83636 2.22292,3.36998 2.22133,7.0873 -0.004,9.22203 -3.35939,19.00678 -9.11891,26.59197 l -2.43671,3.20911 2.16256,0.64615 c 1.18939,0.35539 2.96835,1.16068 3.95319,1.78954 1.90321,1.21522 6.47803,5.88687 7.32438,7.47939 3.22516,6.06855 3.89696,7.82173 4.66125,12.16454 0.60438,3.43431 0.67239,11.10887 0.12121,13.67896 -0.70104,3.26878 -2.75487,4.64897 -14.69993,9.87833 -2.66312,1.16587 -5.15951,2.26211 -5.54757,2.43609 -0.38806,0.17398 -1.69774,0.72432 -2.91042,1.22297 -8.38171,3.44659 -8.20208,3.33488 -8.20208,5.10042 v 1.35528 l 2.55764,0.6115 c 3.08501,0.73758 7.18714,2.32926 9.68255,3.75695 l 1.83328,1.04885 0.24236,-1.33804 c 0.33059,-1.82515 1.0082,-3.07121 2.16496,-3.98112 1.15348,-0.90731 2.41282,-0.85748 7.4736,0.29568 4.21206,0.95977 6.08323,2.03145 7.05619,4.0413 0.87813,1.81402 0.90092,2.41842 0.22197,5.89083 -1.88158,9.62346 -8.03953,17.07789 -16.48714,19.9584 -2.08178,0.70986 -3.36752,0.89262 -6.71739,0.95488 -4.07109,0.0757 -4.14284,0.0911 -4.14514,0.89266 0,0.44862 -0.72728,3.03384 -1.61332,5.74494 -0.88604,2.71109 -1.56072,5.1799 -1.4993,5.48624 0.0647,0.32259 1.06627,0.90223 2.38019,1.37744 3.42275,1.23795 4.06227,1.83418 4.18059,3.89754 0.11204,1.95348 -0.25823,2.5906 -4.68521,8.06211 -3.27035,4.04197 -7.57279,10.21608 -11.17892,16.04208 -1.61273,2.60541 -3.43225,5.26447 -4.04344,5.90902 -0.96795,1.0208 -1.3371,1.17191 -2.86282,1.17191 -1.25931,0 -2.02318,-0.21362 -2.71787,-0.76005 z m 28.43505,-65.97079 c 0.75011,-0.22474 1.36384,-0.60162 1.36384,-0.83751 0,-0.53903 -5.20355,-3.14194 -7.67292,-3.83813 -1.78364,-0.50286 -1.85208,-0.49651 -1.85208,0.17195 0,1.22457 1.84693,3.57234 3.34602,4.25334 1.65316,0.75098 2.92368,0.81704 4.81514,0.25035 z m -51.98632,-24.13135 c -0.0919,-0.0919 -0.62728,0.0729 -1.18971,0.3662 -0.56243,0.29332 -1.63491,0.53429 -2.3833,0.53548 -0.94293,0.001 -1.30873,0.13755 -1.1915,0.44315 0.093,0.24253 0.35973,1.39347 0.59263,2.55764 1.04302,5.2136 2.24183,10.80974 2.87172,13.40555 0.37666,1.55222 0.71003,3.13972 0.74083,3.52778 0.0307,0.38806 0.2068,-4.10365 0.39119,-9.98157 0.1844,-5.87792 0.26007,-10.76232 0.16814,-10.85423 z m -19.59931,13.00198 c -0.39416,-1.70626 -1.14043,-5.16604 -1.65837,-7.6884 -0.51792,-2.52236 -1.24132,-5.85611 -1.60751,-7.40834 l -0.66583,-2.82222 0.13727,8.00243 0.13723,8.00244 1.96723,2.38495 c 1.08197,1.31173 1.96723,2.53928 1.96723,2.7279 0,0.18861 0.0988,0.24407 0.21971,0.12323 0.12082,-0.12083 -0.1028,-1.61572 -0.49696,-3.32199 z m 67.30502,-24.57415 c 1.84327,-0.95054 3.602,-1.94542 3.90832,-2.21084 0.30632,-0.26542 0.6888,-0.48258 0.84991,-0.48258 0.16112,0 1.14082,-0.64014 2.17707,-1.42254 2.10403,-1.58857 2.23908,-2.10165 1.50121,-5.70385 -0.42884,-2.09351 -2.32361,-5.21911 -3.16449,-5.22015 -0.69092,-7.1e-4 -2.56826,1.37016 -3.50252,2.5579 -0.55047,0.69981 -0.71116,1.43213 -0.71116,3.24103 0,1.31217 -0.23989,2.91208 -0.54706,3.64852 -0.63426,1.52075 -2.37303,3.43899 -3.78964,4.18081 -0.96788,0.50685 -1.32588,1.11357 -1.7907,3.03472 -0.22793,0.9421 -0.21029,0.95483 0.7421,0.53515 0.53658,-0.23645 2.4837,-1.20762 4.32696,-2.15817 z m -50.77883,-11.80598 c -3.32313,-3.3716 -4.50166,-4.93198 -7.63866,-10.11383 l -0.85425,-1.41111 0.2172,1.94028 c 0.27648,2.46983 1.42861,7.86522 2.07158,9.70139 0.27178,0.77611 0.58943,2.60173 0.70588,4.05694 0.11641,1.45521 0.45494,3.77479 0.75226,5.15461 l 0.54056,2.50878 2.37825,-0.17016 c 1.92476,-0.13771 2.64319,-0.034 3.76781,0.54417 l 1.38959,0.71434 0.19756,-4.57288 0.19759,-4.57288 z m 31.30374,-2.79369 c 0.74799,-0.64909 3.04923,-4.63719 2.81245,-4.87398 -0.0757,-0.0758 -1.08046,0.0166 -2.2327,0.20531 -1.15221,0.18868 -4.119,0.34397 -6.59285,0.3451 l -4.49792,0.002 v 2.09505 2.09505 l 1.6757,0.22043 c 0.92163,0.12123 1.91382,0.2713 2.20486,0.33347 0.29104,0.0622 1.74187,0.13146 3.2241,0.15397 2.1021,0.0319 2.85147,-0.0949 3.40636,-0.57644 z M 329.1175,147.73895 c -1.03212,-1.03214 -1.2827,-0.56245 -0.33958,0.63654 0.49314,0.62692 0.83467,0.82785 0.92851,0.54627 0.0817,-0.24497 -0.18334,-0.77724 -0.58893,-1.18281 z m 19.71629,-6.27962 c 9.09196,-4.84596 12.05794,-16.71521 6.32298,-25.30335 -3.40822,-5.10387 -8.62373,-7.89025 -14.80182,-7.90787 -13.81379,-0.0394 -22.37768,15.55678 -14.87956,27.09802 1.42635,2.19546 4.07186,4.84198 5.48269,5.4848 0.64255,0.29277 1.08095,0.25074 1.92211,-0.18424 0.82878,-0.42856 2.15265,-0.56351 5.52831,-0.56351 4.70465,0 6.15252,0.33645 7.38099,1.7152 0.36961,0.41483 0.74426,0.75424 0.83256,0.75424 0.0883,0 1.08359,-0.49198 2.21174,-1.09329 z m -8.37794,-6.45318 c -5.19839,-1.69762 -8.19803,-5.57704 -8.48558,-10.97436 -0.17589,-3.30139 0.5866,-5.81255 2.53369,-8.34409 2.54437,-3.30809 7.57484,-5.13032 11.747,-4.25521 1.10511,0.2318 2.23757,0.64973 2.51654,0.92873 0.44119,0.44117 0.2932,0.60791 -1.13587,1.27965 -3.93739,1.85078 -4.70412,6.26283 -1.60256,9.22138 0.96512,0.9206 1.80297,1.36563 2.87139,1.52517 1.9533,0.29168 3.27093,-0.22696 5.09073,-2.00379 1.452,-1.41771 1.46921,-1.42366 1.88274,-0.65094 0.61623,1.15144 0.11289,4.53542 -1.03406,6.95186 -1.1375,2.39657 -3.55717,4.76593 -5.94075,5.81723 -2.10671,0.92919 -6.36368,1.18349 -8.44327,0.50437 z m -26.4589,4.98884 c -0.5654,-3.78399 -0.23587,-10.08543 0.70566,-13.49375 0.48235,-1.74625 0.98669,-3.57188 1.12067,-4.05695 l 0.24359,-0.88194 -0.78591,0.88194 c -2.24748,2.52203 -4.51284,9.43251 -4.7993,14.64028 l -0.19406,3.52778 1.71633,0.5657 c 0.94396,0.31114 1.84083,0.58895 1.99302,0.61736 0.15222,0.0284 0.15222,-0.78178 0,-1.80042 z m -562.42301,127.33376 0.005,-6.0664 1.67061,-0.92464 c 5.00081,-2.7678 10.06328,-8.1323 12.70447,-13.46245 2.37105,-4.78497 2.93737,-7.31659 3.2133,-14.3643 0.27712,-7.07798 0.68744,-8.3588 3.27929,-10.23633 4.53808,-3.28737 10.75595,-1.58546 12.90967,3.53355 0.81169,1.92922 0.38944,10.09161 -0.75975,14.68673 -3.9317,15.72109 -15.48102,27.7062 -31.17568,32.352 l -1.85208,0.54824 z m 331.394354,-4.26723 c -1.014218,-1.01422 -1.199444,-1.44848 -1.199444,-2.81207 0,-5.71686 8.130702,-18.91905 11.651487,-18.91905 1.971915,0 2.248708,1.41077 0.75371,3.84154 -2.029545,3.2999 -3.585753,9.23635 -3.585753,13.67851 0,3.71409 -1.498812,5.41051 -4.780259,5.41051 -1.395067,0 -1.819621,-0.17932 -2.839741,-1.19944 z m 406.399986,0 c -1.01423,-1.01422 -1.19944,-1.44848 -1.19944,-2.81207 0,-5.71686 8.13071,-18.91905 11.65147,-18.91905 1.97192,0 2.24871,1.41077 0.75371,3.84154 -2.02953,3.2999 -3.58574,9.23635 -3.58574,13.67851 0,3.71409 -1.49881,5.41051 -4.78024,5.41051 -1.3951,0 -1.81963,-0.17932 -2.83976,-1.19944 z m -44.61824,-1.59565 c -0.56716,-0.56715 -1.0312,-1.37833 -1.0312,-1.80262 0,-0.42429 1.19062,-3.39224 2.64583,-6.59546 1.45521,-3.20321 2.64583,-6.02684 2.64583,-6.27474 0,-0.2479 -1.23031,-1.2078 -2.73402,-2.13311 -4.51947,-2.78104 -9.16136,-6.09035 -9.3943,-6.69739 -0.1204,-0.31372 -0.2189,-1.01956 -0.2189,-1.56853 0,-1.98056 3.30945,-3.69157 5.59749,-2.89395 0.56603,0.19731 2.11783,1.14701 3.44848,2.11045 3.69443,2.67492 6.13727,4.08378 6.47971,3.73702 0.16845,-0.1706 1.25349,-2.77082 2.41113,-5.77825 1.15768,-3.00743 2.21845,-5.75174 2.35733,-6.09846 0.40044,-0.9999 2.08354,-1.66265 4.22244,-1.66265 1.62531,0 2.12672,0.1529 2.83975,0.86591 0.47625,0.47625 0.86589,1.18606 0.86589,1.57736 0,0.70602 -4.20493,11.98322 -5.18459,13.90455 -0.28099,0.55108 -0.42729,1.21982 -0.32512,1.48607 0.20238,0.52746 2.95786,1.99681 6.56805,3.50243 2.84497,1.18647 3.88055,2.10525 3.88055,3.44281 0,1.39322 -0.5341,2.27798 -1.75683,2.91028 -1.8336,0.94819 -3.5699,0.6679 -7.62635,-1.23107 -2.07236,-0.97014 -3.88504,-1.76389 -4.02826,-1.76389 -0.1432,0 -1.35015,2.39999 -2.68217,5.33332 -1.40572,3.09565 -2.77598,5.61186 -3.26584,5.99722 -0.59154,0.46529 -1.41835,0.6639 -2.76388,0.6639 -1.65156,0 -2.06392,-0.1441 -2.95102,-1.0312 z m -693.149,-16.85986 0.0322,-15.09366 0.66858,2.11666 c 0.36772,1.16417 0.67074,2.31511 0.67338,2.55764 0.003,0.24254 0.18637,0.44098 0.40829,0.44098 0.63308,0 0.0743,-5.13426 -0.93963,-8.63297 -0.85943,-2.96569 -0.8747,-3.2403 -0.85908,-15.44945 l 0.0159,-12.43008 1.95711,2.11666 c 3.68104,3.98115 6.90496,9.43319 8.86574,14.99306 1.89755,5.38057 2.3666,8.36557 2.35596,14.99305 -0.009,5.33212 -0.11607,6.42266 -0.96941,9.83333 -1.706,6.81857 -4.42219,11.98151 -8.72104,16.577 -3.8693,4.13629 -3.52497,5.32311 -3.48799,-12.02222 z m 55.86706,8.55848 c -0.9035,-0.90349 -1.11158,-2.2492 -0.519,-3.35644 0.22802,-0.42607 0.20983,-5.91212 -0.0531,-16.00913 -0.36683,-14.0881 -0.3518,-15.43445 0.18132,-16.2481 0.78797,-1.20259 2.94864,-1.7706 4.81924,-1.26691 1.58186,0.42596 0.97978,-0.0884 16.69257,14.26025 10.84916,9.90726 11.17414,10.24237 11.17414,11.52211 0,1.69296 -1.19822,2.74513 -5.29166,4.64669 -8.76107,4.06985 -19.49146,7.31744 -24.17758,7.31744 -1.61067,0 -2.1144,-0.15434 -2.82596,-0.86591 z m 13.57429,-8.28527 c 5.01556,-1.70856 8.2291,-3.10948 8.0763,-3.52081 -0.19828,-0.53376 -13.28623,-12.37523 -13.6779,-12.37523 -0.42082,0 -0.51484,9.57523 -0.14114,14.3757 0.27423,3.52282 0.0436,3.46176 5.74274,1.52034 z m 392.78945,8.24904 c -0.7796,-0.77963 -0.86515,-1.07908 -0.62974,-2.20487 0.14986,-0.71649 0.23392,-4.15034 0.1869,-7.63079 l -0.0856,-6.32808 -1.32225,-1.2832 c -0.8468,-0.8218 -1.46625,-1.84449 -1.72271,-2.84415 -0.22028,-0.85851 -0.57355,-5.52968 -0.78508,-10.38038 -0.49085,-11.25723 -0.8915,-64.54396 -0.54066,-71.91019 0.26176,-5.49587 0.28299,-5.60718 1.28926,-6.75325 1.1691,-1.33152 4.22434,-2.28305 9.57199,-2.98109 3.71496,-0.48492 5.31347,-0.15451 6.80692,1.40698 l 1.04154,1.08899 -0.12362,12.7104 -0.12361,12.71039 0.75505,-0.75506 c 1.05258,-1.05258 2.228,-1.43245 4.43241,-1.43245 h 1.89572 l 0.18228,-1.4993 c 0.10026,-0.82462 0.2746,-2.58499 0.38742,-3.91193 0.46327,-5.44833 2.57577,-12.14915 5.55805,-17.62988 0.41292,-0.75882 0.45437,-1.21951 0.17614,-1.95665 -0.31923,-0.84571 -0.0328,-1.69312 2.33214,-6.89872 1.48283,-3.26403 2.69392,-6.19354 2.69127,-6.51003 -0.004,-0.34785 -1.50279,-1.50538 -3.79236,-2.92674 -5.53021,-3.43315 -8.35247,-5.62632 -8.49111,-6.5984 -0.32262,-2.2622 1.45909,-3.92668 4.20324,-3.92668 1.33893,0 2.10587,0.38381 6.05705,3.03125 2.48822,1.6672 4.74007,2.94835 5.00416,2.84701 0.26405,-0.10133 1.54809,-2.90361 2.8534,-6.22728 2.61825,-6.66672 2.92404,-7.05487 5.77371,-7.32868 2.1119,-0.20293 3.80911,0.59093 4.14771,1.94004 0.2679,1.06733 -0.26829,2.72485 -3.44516,10.65061 -1.12197,2.79914 -1.94723,5.23939 -1.83388,5.42278 0.11331,0.18339 2.20881,1.29203 4.65663,2.46364 2.44782,1.17161 4.72839,2.36752 5.06794,2.65759 0.67557,0.57713 0.86667,3.04455 0.26458,3.41665 -0.62837,0.38836 -0.37705,0.78658 0.79375,1.25765 3.07915,1.23891 7.82518,6.05032 9.89489,10.03124 1.92881,3.70988 3.37442,8.07548 4.55595,13.75833 1.15605,5.5603 1.15831,17.45821 0.005,24.69445 -1.80632,11.33085 -4.49089,17.55685 -9.49247,22.01466 -1.13055,1.00764 -2.17988,2.29554 -2.3876,2.93042 -0.2909,0.88904 -1.01565,1.52714 -3.36924,2.96642 -2.62079,1.60268 -6.70278,5.30683 -6.70278,6.08232 0,0.14886 0.99219,0.20477 2.20486,0.12426 1.81625,-0.12059 2.67967,-0.42168 4.89875,-1.7082 1.48163,-0.85899 4.02163,-2.06295 5.64444,-2.67545 2.56554,-0.96832 3.4109,-1.11663 6.47834,-1.13654 2.94749,-0.0191 3.73087,0.0961 4.7625,0.7007 3.36635,1.97282 2.01507,7.10632 -2.03884,7.74558 -0.72189,0.11384 -1.82849,0.2861 -2.45908,0.3828 -1.63688,0.25104 -1.52957,1.39442 0.29658,3.15907 2.22462,2.14973 6.67004,8.20223 7.81015,10.63365 3.28352,7.00254 -0.23844,13.50814 -7.31298,13.50814 -4.5025,0 -7.33647,-2.39762 -10.46014,-8.84959 l -1.88708,-3.89779 -1.76389,0.20767 c -0.97013,0.11422 -6.73128,0.31078 -12.80255,0.43681 -6.07123,0.12602 -11.10985,0.34438 -11.19692,0.48524 -0.0871,0.14086 0.87189,1.16056 2.13103,2.266 2.06819,1.81577 2.28928,2.14026 2.28928,3.3598 0,1.72851 -1.17218,2.76488 -5.29167,4.67853 -8.76092,4.06985 -19.49132,7.31744 -24.17745,7.31744 -1.63205,0 -2.11098,-0.15096 -2.86219,-0.90214 z m 13.61056,-8.24904 c 4.67529,-1.59265 8.13911,-3.06442 8.13413,-3.45617 -0.004,-0.14797 -1.12056,-1.27852 -2.48599,-2.51232 l -2.48253,-2.2433 -4.5696,0.25417 -4.56956,0.25417 0.004,1.63634 c 0,0.89999 0.10407,2.94604 0.22867,4.54677 0.27425,3.52282 0.0436,3.46176 5.74277,1.52034 z m 17.91243,-26.71715 3.95404,-0.22085 -1.13182,-1.3187 c -0.62251,-0.72528 -3.91664,-4.55116 -7.32031,-8.50194 -3.40368,-3.95078 -7.5981,-8.92948 -9.32092,-11.06379 -1.72283,-2.1343 -3.35037,-4.11868 -3.61675,-4.40972 -0.41123,-0.44932 -0.46863,1.36832 -0.38047,12.04609 0.0991,11.99848 0.13621,12.61144 0.80941,13.36412 0.69557,0.77771 0.79276,0.78558 6.87917,0.55724 3.39548,-0.12738 7.95291,-0.33098 10.12765,-0.45245 z m 17.68185,-31.85895 c 2.50201,-6.45248 2.57045,-19.97037 0.13812,-27.27178 -1.60969,-4.83192 -3.83921,-6.29508 -7.22814,-4.74357 -1.61007,0.73712 -2.01418,1.13827 -2.95938,2.93775 -1.23165,2.3448 -2.10813,6.42565 -2.41759,11.25627 l -0.20337,3.175 1.69086,2.00437 c 3.84087,4.55308 5.0401,7.77351 3.79691,10.1962 -0.34007,0.66274 -0.91122,1.58083 -1.26922,2.0402 -0.35796,0.45937 -0.57718,0.95445 -0.48712,1.10018 0.0901,0.14572 1.23885,0.37718 2.55285,0.51433 1.31399,0.13715 2.9447,0.44529 3.6238,0.68475 0.6791,0.23946 1.39524,0.3838 1.59138,0.32076 0.19618,-0.063 0.72309,-1.05955 1.1709,-2.21446 z m -7.34839,-53.25292 c 0,-0.31171 -1.60331,-1.08091 -2.25302,-1.08091 -0.25079,0 -0.61895,0.35719 -0.81812,0.79375 -0.35201,0.77145 -0.31398,0.79031 1.35449,0.67151 0.94414,-0.0672 1.71665,-0.24019 1.71665,-0.38435 z m -386.12871,114.14845 c -0.97753,-0.4552 -2.41588,-1.55306 -3.19633,-2.4397 -1.53126,-1.73961 -3.99802,-6.3968 -5.92001,-11.17689 -0.6603,-1.64221 -1.3788,-3.04526 -1.59665,-3.11788 -0.21786,-0.0726 -0.61897,0.39789 -0.89136,1.04557 -1.39564,3.31853 -5.66947,4.76846 -9.25583,3.14012 -2.62331,-1.19108 -2.85755,-2.76322 -0.97835,-6.56642 3.07487,-6.22306 10.00541,-11.9605 18.16808,-15.04043 2.59532,-0.97926 3.43202,-1.12672 6.50612,-1.14667 4.36667,-0.0283 5.72912,0.5819 6.46991,2.89784 0.42153,1.31783 0.40244,1.61916 -0.17638,2.78355 -0.923,1.85675 -2.09964,2.56985 -4.89307,2.96546 -1.3439,0.19031 -2.59482,0.49739 -2.77982,0.68239 -0.21329,0.21329 0.50462,1.20996 1.96218,2.72406 3.04678,3.16498 6.50963,7.86714 7.78304,10.5685 1.87222,3.97163 1.67807,7.84941 -0.52691,10.52444 -2.37913,2.88629 -7.07126,3.83401 -10.67462,2.15606 z m 623.27619,-10.30377 c -3.39337,-1.69098 -5.12001,-5.41157 -4.29553,-9.256 1.04362,-4.86622 10.30746,-13.65339 18.41087,-17.46352 3.13281,-1.47301 7.32547,-2.86559 10.85106,-3.60416 3.17094,-0.66428 10.14769,-1.06969 12.45468,-0.72374 l 1.65643,0.2484 v 6.09995 6.09995 l -2.92943,0.22518 c -6.31084,0.48508 -12.70903,2.98452 -17.61042,6.87949 -2.74712,2.18303 -4.56724,4.21115 -6.92055,7.71144 -2.31037,3.43641 -4.44352,4.69076 -7.97715,4.69076 -1.24622,0 -2.39152,-0.28562 -3.63996,-0.90775 z M 3.2611951,229.70901 c -3.74701848,-0.59013 -6.5117872,-4.11007 -6.5117872,-8.29044 0,-3.18145 1.3538764,-5.51022 4.15931687,-7.15431 1.36472083,-0.79978 2.05448243,-0.96009 4.13096063,-0.96009 2.0815934,0 2.7651603,0.15967 4.1448071,0.9682 2.7625855,1.61899 4.1454705,4.06491 4.1454705,7.33215 0,5.36362 -4.4956341,8.98221 -10.0687679,8.10449 z M -155.12142,219.51363 c -1.55207,-0.94953 -12.23734,-13.13239 -20.44112,-23.30601 -5.06468,-6.2808 -5.67726,-7.61051 -5.62199,-12.20361 0.0432,-3.59083 1.55858,-13.09608 2.42274,-15.19684 0.55119,-1.33996 2.3793,-2.26633 4.4673,-2.26378 1.91499,0.002 9.35215,1.23422 11.92606,1.97541 4.31872,1.24362 7.01704,3.31291 9.94796,7.62887 3.04523,4.48431 3.12424,6.31932 0.433,10.05687 -0.67734,0.94069 -0.73779,0.91278 3.17992,1.46823 1.55407,0.22033 3.29623,0.71029 3.93972,1.10798 1.2445,0.76915 2.7224,3.44129 4.86995,8.80521 0.6603,1.64923 1.63866,4.03048 2.17412,5.29167 1.13229,2.66689 1.46936,4.87804 0.90451,5.93347 -0.21933,0.40982 -1.53777,1.41033 -2.92987,2.22336 -2.93457,1.71388 -5.20597,3.70923 -6.70869,5.89336 -1.89913,2.76029 -6.17031,4.04999 -8.56361,2.58581 z m 591.61258,-5.78809 c -0.0825,-0.24253 -0.35577,-1.3141 -0.60737,-2.38125 -0.51026,-2.16418 -0.27697,-2.07696 -4.2108,-1.57443 -2.30131,0.29399 -2.52797,0.0838 -2.95073,-2.73573 -0.35222,-2.34891 -0.69942,-2.53136 -3.55632,-1.8688 -2.90827,0.67448 -3.14029,0.52017 -3.71761,-2.47248 -0.2237,-1.15955 -0.51481,-2.23083 -0.64696,-2.38061 -0.13211,-0.14978 -1.33392,-0.0431 -2.6706,0.23713 -1.51828,0.31825 -2.65151,0.3911 -3.0196,0.1941 -0.37193,-0.19905 -0.74951,-1.16469 -1.02379,-2.61837 -0.49301,-2.61283 -0.46479,-2.5994 -3.94935,-1.87968 -1.42223,0.29376 -2.16228,0.31077 -2.41748,0.0556 -0.20228,-0.20228 -1.23137,-4.70933 -2.28685,-10.01567 -2.16443,-10.88147 -2.17889,-10.64846 0.68799,-11.07837 2.57824,-0.38663 2.79037,-0.71063 2.27972,-3.482 -0.32653,-1.77218 -0.33623,-2.47924 -0.038,-2.77744 0.41148,-0.41147 17.2581,-4.16858 18.69546,-4.16942 0.91069,-7.1e-4 1.29744,0.76388 1.6812,3.32301 0.13786,0.91933 0.45614,1.75036 0.70724,1.84672 0.48433,0.18586 9.9314,-1.7708 10.29233,-2.13173 0.11681,-0.11679 0.0109,-1.33919 -0.23513,-2.71642 -0.27319,-1.52869 -0.32078,-2.63081 -0.12216,-2.82943 0.32561,-0.32561 17.73544,-4.19495 18.87618,-4.19525 0.771,-2e-4 1.20308,0.81684 1.5082,2.8519 0.38978,2.59934 0.46958,2.65172 3.21084,2.10685 2.06837,-0.41113 2.42362,-0.40408 2.75841,0.0548 0.21134,0.28967 1.23867,4.83451 2.28293,10.09966 1.43012,7.21061 1.80121,9.69042 1.50378,10.0488 -0.2172,0.2617 -1.50816,0.68586 -2.86879,0.9426 -2.76997,0.52265 -2.71804,0.43149 -2.07352,3.64083 0.51266,2.5527 0.28871,2.81959 -2.86537,3.41473 -2.79244,0.52689 -2.80327,0.54702 -2.08904,3.8774 0.45064,2.10127 0.16182,2.65985 -1.55578,3.00892 -0.61719,0.12543 -1.71973,0.38048 -2.45005,0.56678 l -1.32789,0.33873 0.0932,2.84795 c 0.10686,3.26681 0.12912,3.23852 -3.02087,3.84394 l -2.05567,0.39511 0.2383,2.54318 c 0.18182,1.9403 0.12555,2.62932 -0.23735,2.90658 -0.5171,0.39504 -10.59367,2.6028 -11.87961,2.6028 -0.43399,0 -0.85655,-0.19843 -0.93903,-0.44097 z m -553.95678,-5.55434 c -3.1645,-1.92942 -3.37059,-5.44836 -0.7009,-11.96787 2.3979,-5.8558 4.51579,-9.19815 8.22942,-12.98733 3.42938,-3.49913 4.35876,-3.91581 6.06635,-2.71976 1.24979,0.87539 1.02081,2.54742 -0.81344,5.93985 -2.03653,3.76654 -3.26237,8.52711 -3.65766,14.20466 -0.33474,4.8079 -0.81921,6.07614 -2.84179,7.43915 -1.564,1.05398 -4.62997,1.09854 -6.28198,0.0913 z m 638.73577,-12.0058 c -2.34826,-1.24047 -3.6515,-4.12368 -3.13404,-6.9337 0.32713,-1.77641 0.83358,-2.66695 2.14358,-3.76925 2.82667,-2.37848 7.15098,-1.89099 9.40174,1.0599 1.38829,1.82015 1.57177,5.31022 0.3865,7.35225 -1.6269,2.80295 -5.78072,3.88454 -8.79778,2.2908 z m -25.21648,-5.94134 c -1.40656,-0.88422 -1.70512,-2.42223 -1.36098,-7.01196 0.85259,-11.37204 5.45771,-21.17203 13.46132,-28.64651 5.78411,-5.40174 8.576,-6.45289 10.91816,-4.11074 2.0272,2.02721 1.64585,3.17144 -1.94391,5.83266 -8.69403,6.44514 -13.72288,16.44527 -14.37573,28.58693 -0.20511,3.81478 -0.30678,4.29751 -1.05265,4.99823 -1.18305,1.1114 -4.14405,1.29568 -5.64621,0.35139 z m -733.90148,-1.09019 c -3.11906,-0.66711 -6.57701,-1.8656 -9.10763,-3.15663 l -1.4757,-0.75284 v -4.22617 c 0,-2.32439 0.0634,-4.22616 0.14094,-4.22616 0.0775,0 0.99033,0.57862 2.02847,1.28583 1.03814,0.70721 3.15753,1.88455 4.70976,2.61632 9.47311,4.46594 18.58623,3.42431 24.88033,-2.84382 3.51558,-3.50107 4.64061,-6.40412 6.64532,-17.14759 0.86646,-4.64348 2.19712,-8.42458 3.52425,-10.01427 0.79469,-0.95191 1.26059,-1.17552 2.71043,-1.30086 2.15038,-0.1859 4.06143,0.68629 4.54225,2.07305 0.26523,0.76494 0.116,1.41948 -0.76406,3.35139 -1.40405,3.08214 -1.67932,4.17998 -2.54807,10.16217 -0.39446,2.71624 -1.0289,5.97049 -1.40987,7.23167 -2.44569,8.09636 -10.8163,15.17957 -20.19141,17.08596 -3.64986,0.74218 -9.86244,0.67951 -13.68501,-0.13805 z m 721.18409,-27.09812 c -1.19405,-0.9383 -1.6152,-2.39624 -1.02253,-3.53976 0.59902,-1.15576 4.26611,-4.696 6.91342,-6.6743 4.41092,-3.29621 11.052,-6.09407 14.46502,-6.09407 1.53793,0 1.97541,0.1584 2.84822,1.0312 1.19034,1.19034 1.38328,2.93395 0.43995,3.97631 -0.32519,0.35933 -1.47613,0.90668 -2.55764,1.21633 -5.26225,1.50664 -9.51629,3.9979 -13.80843,8.08652 -2.72154,2.59248 -2.77534,2.62289 -4.62798,2.61513 -1.23173,-0.005 -2.14038,-0.21683 -2.65003,-0.61736 z m -731.74667,-34.03521 c -0.0134,-15.91769 0.10183,-24.60625 0.32641,-24.60625 0.19094,0 2.28513,0.40918 4.65375,0.90928 8.99451,1.89908 9.76683,3.29289 6.78395,12.24312 -0.89139,2.67462 -1.54167,5.0689 -1.44508,5.32062 0.0966,0.25172 1.1831,0.82473 2.41445,1.27335 2.8712,1.04606 3.65933,1.57657 4.16853,2.80588 0.60739,1.46639 -0.0357,3.36962 -1.91588,5.66997 -4.54926,5.56594 -8.77638,11.47844 -14.54516,20.34444 -0.32738,0.50314 -0.42481,-4.79095 -0.44097,-23.96041 z m 128.94331,17.06179 c -2.19662,-1.49332 -2.47554,-3.5132 -1.0378,-7.51576 3.23472,-9.00528 9.77112,-16.96379 12.05596,-14.67895 0.70243,0.70244 0.48128,2.07007 -0.6111,3.77912 -1.58834,2.48496 -2.81296,6.60892 -3.22793,10.87016 -0.55476,5.69678 -0.60294,5.89155 -1.72276,6.96441 -1.39041,1.3321 -3.95055,1.60472 -5.45637,0.58102 z m -44.16048,-1.42516 c -0.90328,-0.38822 -2.25358,-2.04097 -2.25358,-2.75836 0,-0.28618 1.19062,-3.14114 2.64583,-6.34435 1.45521,-3.20321 2.64367,-6.08297 2.64102,-6.39946 -0.003,-0.34785 -1.5028,-1.50538 -3.79236,-2.92674 -5.53021,-3.43315 -8.35246,-5.62632 -8.49109,-6.5984 -0.32262,-2.2622 1.45908,-3.92668 4.20322,-3.92668 1.33895,0 2.10588,0.38381 6.05707,3.03125 2.48819,1.6672 4.74006,2.94835 5.00413,2.84701 0.26408,-0.10133 1.54812,-2.90361 2.85344,-6.22728 2.61823,-6.66672 2.92402,-7.05487 5.7737,-7.32868 2.11189,-0.20293 3.80911,0.59093 4.14771,1.94004 0.26788,1.06733 -0.26828,2.72485 -3.44517,10.65061 -1.12198,2.79914 -1.94723,5.23939 -1.83389,5.42278 0.11334,0.18339 2.20883,1.29203 4.65665,2.46364 2.44781,1.17161 4.72838,2.36752 5.06793,2.65759 1.0109,0.86358 0.80817,2.92546 -0.40161,4.08449 -1.7903,1.71522 -3.24554,1.63176 -7.85611,-0.45053 -2.20071,-0.99393 -4.18027,-1.80662 -4.39901,-1.80597 -0.21873,7e-4 -1.48095,2.38668 -2.80492,5.30231 -1.32397,2.91564 -2.69121,5.55816 -3.03831,5.87228 -0.72934,0.66005 -3.64168,0.96419 -4.73465,0.49445 z m 174.757146,-8.69231 c -1.092878,-0.59299 -1.5294189,-1.82619 -1.1492938,-3.24667 0.3776348,-1.41117 0.3812148,-2.76892 0.04729,-17.93659 -0.16707,-7.58888 -0.1955074,-14.139056 -0.063193,-14.555949 0.5127308,-1.615472 4.0738248,-2.37854 6.1171208,-1.31077 0.523942,0.273796 6.746994,5.793729 13.829008,12.266509 13.69696,12.51868 13.75671,12.58814 12.640765,14.69634 -1.080548,2.04133 -15.125859,7.79 -23.820455,9.74959 -4.485308,1.0109 -6.218399,1.08786 -7.601242,0.33754 z m 12.607321,-8.62677 c 4.511643,-1.52242 8.290278,-3.19775 8.290278,-3.67567 0,-0.47367 -13.358019,-12.78188 -13.709855,-12.63239 -0.343767,0.14605 -0.0069,16.43643 0.353819,17.11174 0.381268,0.71374 0.735467,0.65754 5.065758,-0.80368 z m 393.792663,8.62677 c -1.09287,-0.59299 -1.5294,-1.82619 -1.14928,-3.24667 0.37761,-1.41117 0.38121,-2.76892 0.0473,-17.93659 -0.16707,-7.58888 -0.19551,-14.139056 -0.0632,-14.555949 0.51273,-1.615472 4.07381,-2.37854 6.11713,-1.31077 0.52391,0.273796 6.74698,5.793729 13.829,12.266509 13.69694,12.51868 13.75671,12.58814 12.64076,14.69634 -1.08055,2.04133 -15.12587,7.79 -23.82047,9.74959 -4.48529,1.0109 -6.21838,1.08786 -7.60123,0.33754 z m 12.60732,-8.62677 c 4.51164,-1.52242 8.29028,-3.19775 8.29028,-3.67567 0,-0.47367 -13.35803,-12.78188 -13.70986,-12.63239 -0.34375,0.14605 -0.007,16.43643 0.35384,17.11174 0.38124,0.71374 0.73547,0.65754 5.06574,-0.80368 z m -356.234039,2.69443 c -2.124608,-0.79196 -3.99433,-2.18899 -5.11623,-3.8228 -1.365755,-1.98893 -4.357589,-7.99675 -5.361086,-10.76544 -1.136925,-3.13683 -1.527891,-3.33058 -2.545038,-1.26124 -1.086757,2.21096 -3.054046,3.28403 -6.020699,3.28403 -3.197874,0 -5.194494,-1.3462 -5.192639,-3.50108 0.0025,-2.81848 3.936231,-8.73246 8.019232,-12.05593 6.604843,-5.376178 14.715726,-8.519758 20.025514,-7.761397 3.193881,0.456161 4.409722,1.640478 4.409722,4.295387 0,2.518469 -1.89914,4.20635 -4.732824,4.20635 -1.267001,0 -3.381064,0.63315 -3.381064,1.01261 0,0.13091 0.892284,1.18695 1.982854,2.34674 2.988437,3.17812 6.655393,8.18186 7.850396,10.71226 2.574935,5.45238 1.305877,10.47625 -3.231032,12.7908 -1.832402,0.93483 -4.946181,1.1761 -6.707106,0.51971 z m 406.399999,0 c -2.12461,-0.79196 -3.99433,-2.18899 -5.11623,-3.8228 -1.36578,-1.98893 -4.35759,-7.99675 -5.3611,-10.76544 -1.13693,-3.13683 -1.52788,-3.33058 -2.54504,-1.26124 -1.08673,2.21096 -3.05404,3.28403 -6.02068,3.28403 -3.1979,0 -5.19452,-1.3462 -5.19265,-3.50108 0.004,-2.81848 3.93623,-8.73246 8.01924,-12.05593 6.60481,-5.376178 14.7157,-8.519758 20.0255,-7.761397 3.19388,0.456161 4.40972,1.640478 4.40972,4.295387 0,2.518469 -1.89914,4.20635 -4.73283,4.20635 -1.267,0 -3.38105,0.63315 -3.38105,1.01261 0,0.13091 0.89228,1.18695 1.98285,2.34674 2.98846,3.17812 6.6554,8.18186 7.8504,10.71226 2.57493,5.45238 1.30588,10.47625 -3.23105,12.7908 -1.8324,0.93483 -4.94616,1.1761 -6.70708,0.51971 z M 108.22718,116.88749 c -0.73215,-0.36576 -1.48918,-1.13714 -1.85984,-1.89519 -0.59027,-1.20702 -0.5932,-1.47287 -0.0526,-4.7625 1.40748,-8.56505 -0.69688,-16.975631 -6.03088,-24.103631 -1.854121,-2.477725 -1.960504,-2.729637 -1.862263,-4.409723 l 0.104197,-1.781878 h 2.644296 2.6443 l 1.8748,2.469444 c 2.37116,3.123233 5.42357,9.310947 6.57176,13.322028 1.35075,4.71866 1.81613,10.00955 1.29946,14.77334 -0.46743,4.30977 -1.01826,6.04315 -2.10517,6.62485 -0.9991,0.53469 -1.80164,0.47584 -3.22806,-0.23674 z m 406.39999,0 c -0.73216,-0.36576 -1.48918,-1.13714 -1.85984,-1.89519 -0.59027,-1.20702 -0.5932,-1.47287 -0.0526,-4.7625 1.40747,-8.56505 -0.69688,-16.975631 -6.03088,-24.103631 -1.85413,-2.477725 -1.96049,-2.729637 -1.86228,-4.409723 l 0.10421,-1.781878 h 2.64432 2.64428 l 1.8748,2.469444 c 2.37116,3.123233 5.42357,9.310947 6.57176,13.322028 1.35075,4.71866 1.81613,10.00955 1.29945,14.77334 -0.46743,4.30977 -1.01825,6.04315 -2.10516,6.62485 -0.9991,0.53469 -1.80164,0.47584 -3.22806,-0.23674 z M 47.808204,100.65841 C 46.619957,99.908991 33.849313,85.404411 29.950036,80.37554 c -0.454399,-0.586038 0.380961,-0.617361 16.46459,-0.617361 h 16.943278 l 1.119706,2.38125 c 0.615837,1.309688 1.383217,3.37784 1.705285,4.595895 0.771761,2.918784 0.400516,3.575692 -3.294835,5.830079 -3.326105,2.029126 -3.982942,2.600349 -6.023511,5.238393 -0.952115,1.230892 -2.127529,2.277404 -3.070793,2.734024 -1.900022,0.91979 -4.631122,0.97481 -5.985552,0.12059 z m 406.399986,0 c -1.18826,-0.749419 -13.95889,-15.253999 -17.85817,-20.28287 -0.45438,-0.586038 0.38096,-0.617361 16.46459,-0.617361 h 16.94328 l 1.11972,2.38125 c 0.61581,1.309688 1.38321,3.37784 1.70526,4.595895 0.77177,2.918784 0.40054,3.575692 -3.2948,5.830079 -3.32613,2.029126 -3.98297,2.600349 -6.02354,5.238393 -0.95212,1.230892 -2.12754,2.277404 -3.07079,2.734024 -1.90003,0.91979 -4.63113,0.97481 -5.98555,0.12059 z m -626.86876,-5.464548 c -0.31285,-0.243445 -0.75234,-1.35544 -0.97665,-2.471099 -0.46336,-2.304647 -0.51834,-2.326841 -4.02134,-1.623338 -1.25913,0.25287 -2.14196,0.280494 -2.34895,0.0735 -0.1824,-0.182398 -0.51408,-1.277522 -0.73708,-2.433606 -0.223,-1.156086 -0.53645,-2.247419 -0.69657,-2.425186 -0.17542,-0.194753 -1.29203,-0.144342 -2.80945,0.126836 -3.08857,0.551958 -3.35262,0.366923 -3.89846,-2.731874 -0.43741,-2.483215 -0.45089,-2.48931 -3.94984,-1.78662 -2.26818,0.455516 -3.06279,0.111619 -3.06279,-1.325547 v -0.838749 l 20.7257,0.05286 c 11.39913,0.02907 20.30981,0.116995 19.80152,0.195386 l -0.92417,0.142528 0.50163,2.656673 c 0.3632,1.923532 0.39591,2.784065 0.11851,3.118305 -0.21071,0.253898 -1.42244,0.657739 -2.69272,0.897424 -1.27029,0.239686 -2.38945,0.643836 -2.48702,0.898112 -0.0976,0.254276 0.01,1.363983 0.23856,2.466017 0.33862,1.631168 0.32771,2.089143 -0.0587,2.463284 -0.26107,0.252773 -2.85593,0.957434 -5.76634,1.565915 -2.91042,0.608481 -5.53812,1.177311 -5.83934,1.264068 -0.30122,0.08676 -0.80364,-0.04144 -1.11648,-0.284886 z m 406.39998,0 c -0.31284,-0.243445 -0.75234,-1.35544 -0.97663,-2.471099 -0.46338,-2.304647 -0.51834,-2.326841 -4.02135,-1.623338 -1.25913,0.25287 -2.14196,0.280494 -2.34894,0.0735 -0.18242,-0.182398 -0.5141,-1.277522 -0.73709,-2.433606 -0.22299,-1.156086 -0.53647,-2.247419 -0.69656,-2.425186 -0.17544,-0.194753 -1.29205,-0.144342 -2.80945,0.126836 -3.08857,0.551958 -3.35262,0.366923 -3.89848,-2.731874 -0.43741,-2.483215 -0.45088,-2.48931 -3.94984,-1.78662 -2.26818,0.455516 -3.06278,0.111619 -3.06278,-1.325547 v -0.838749 l 20.72569,0.05286 c 11.39914,0.02907 20.30981,0.116995 19.80153,0.195386 l -0.92418,0.142528 0.50165,2.656673 c 0.36319,1.923532 0.39589,2.784065 0.1185,3.118305 -0.21071,0.253898 -1.42243,0.657739 -2.69272,0.897424 -1.27028,0.239686 -2.38947,0.643836 -2.48701,0.898112 -0.0976,0.254276 0.01,1.363983 0.23855,2.466017 0.33863,1.631168 0.3277,2.089143 -0.0587,2.463284 -0.26105,0.252773 -2.85591,0.957434 -5.76633,1.565915 -2.91041,0.608481 -5.53811,1.177311 -5.83935,1.264068 -0.3012,0.08676 -0.80363,-0.04144 -1.11647,-0.284886 z m -456.99374,-1.696185 c -4.24113,-3.72761 -8.08786,-5.773594 -13.46803,-7.163327 -4.46949,-1.154499 -6.05168,-2.712289 -5.53765,-5.452272 l 0.22071,-1.176498 4.82977,0.114494 4.82978,0.114494 3.0843,1.47525 c 3.85712,1.844893 7.30252,4.142348 9.84133,6.562378 2.35865,2.248302 2.83222,3.762819 1.82251,5.828541 -0.5628,1.151413 -0.80691,1.31568 -2.09494,1.409731 -1.31836,0.09627 -1.65603,-0.06767 -3.52778,-1.712791 z m 406.39997,0 c -4.24113,-3.72761 -8.08785,-5.773594 -13.46803,-7.163327 -4.46948,-1.154499 -6.05165,-2.712289 -5.53762,-5.452272 l 0.2207,-1.176498 4.82977,0.114494 4.82978,0.114494 3.0843,1.47525 c 3.85713,1.844893 7.30253,4.142348 9.84133,6.562378 2.35864,2.248302 2.83221,3.762819 1.82252,5.828541 -0.56282,1.151413 -0.80694,1.31568 -2.09497,1.409731 -1.31836,0.09627 -1.65601,-0.06767 -3.52778,-1.712791 z"
         id="path4522"
         inkscape:connector-curvature="0" />
      <path
         style="fill:#050500;stroke-width:0.35277778"
         d="m -55.337665,258.94764 c -1.446212,-0.43323 -3.202382,-2.45578 -3.497287,-4.02775 -0.844561,-4.5019 3.571586,-7.93974 7.599553,-5.91602 2.532408,1.27233 3.648547,4.88834 2.308637,7.47944 -1.012017,1.95702 -4.118359,3.1511 -6.410903,2.46433 z m -19.703203,-1.62189 c -4.038614,-2.12534 -5.458908,-6.34304 -3.475982,-10.32225 2.718791,-5.4559 10.308501,-5.56686 13.257324,-0.19382 2.107294,3.83969 0.658869,8.37672 -3.329093,10.42803 -1.622506,0.83458 -4.947461,0.87995 -6.452249,0.088 z m 34.466028,-13.39579 c -6.942895,-1.07115 -15.538061,-4.36516 -21.060473,-8.07123 -10.315557,-6.92274 -17.356486,-16.05372 -21.172328,-27.45719 -3.380849,-10.10352 -2.925452,-19.06149 1.536217,-30.21836 l 0.775924,-1.94028 -1.029501,1.11232 c -2.413257,2.60737 -5.593831,9.24036 -6.859174,14.3046 -2.908561,11.64081 -0.134874,24.10012 7.402907,33.25361 2.90424,3.52676 3.458743,4.82963 3.458743,8.1267 0,3.25291 -0.638323,4.79916 -2.868313,6.94806 -3.961045,3.817 -10.201666,3.68637 -13.916613,-0.29131 -4.307286,-4.61192 -8.636109,-13.75385 -10.585569,-22.35537 -0.7364,-3.24922 -0.83951,-4.59239 -0.83951,-10.93611 0,-5.65128 0.14,-7.88734 0.64057,-10.23055 3.18417,-14.90554 11.322876,-26.86207 23.463722,-34.47043 7.160754,-4.48746 16.967951,-6.75392 25.108108,-5.80252 4.043091,0.47254 4.343915,0.18312 1.019725,-0.98108 -5.277598,-1.84832 -14.189452,-2.42378 -19.659571,-1.26947 -10.80323,2.27972 -19.455436,8.16793 -25.200424,17.15003 -2.8307,4.42571 -6.516,6.19945 -10.96263,5.27633 -3.76082,-0.78074 -6.8726,-3.90577 -7.65841,-7.69101 -0.89977,-4.33415 0.9229,-7.80588 7.55377,-14.38801 8.03792,-7.97885 16.627734,-12.58147 27.68248,-14.83291 6.286669,-1.28036 14.558507,-1.28446 20.548737,-0.0102 5.333256,1.13451 8.765455,2.30851 13.136978,4.49356 9.557413,4.77713 17.289946,12.60938 20.947147,21.21728 1.386886,3.26429 2.931181,8.9101 2.931181,10.71614 0,0.65422 0.15875,1.18949 0.352778,1.18949 0.545101,0 0.426265,-7.25624 -0.174011,-10.62532 -2.640277,-14.81864 -12.52032,-25.94474 -27.038808,-30.44891 -4.448104,-1.37997 -6.166862,-2.44862 -7.780125,-4.83737 -3.438338,-5.09112 -0.902959,-12.50469 4.987219,-14.58287 3.354017,-1.18336 6.970056,-0.41113 13.601559,2.90472 14.829916,7.41518 24.755682,20.13768 28.829196,36.95225 1.024354,4.22831 1.263897,14.11689 0.458629,18.93274 -0.876663,5.24283 -2.077265,9.10443 -4.204356,13.52282 -3.686489,7.65757 -9.477156,13.82546 -16.81886,17.91448 -1.630475,0.90811 -1.009844,1.14711 1.15849,0.44613 4.771549,-1.54255 10.26298,-4.93637 14.431553,-8.919 4.86609,-4.64903 8.5410429,-10.86365 10.3871607,-17.56546 0.8501097,-3.08608 0.9959622,-4.38375 1.1884165,-10.57337 0.2429828,-7.81462 0.3743678,-8.32562 2.7968328,-10.87781 2.1053494,-2.2181 3.67036334,-2.86737 6.9284918,-2.87442 2.4780027,-0.005 3.0536796,0.12208 4.7199055,1.04492 3.9823427,2.2056 5.5777797,5.78547 5.1977957,11.66289 -0.836492,12.93846 -5.2250584,23.90612 -13.33631532,33.32936 -7.25955618,8.43379 -17.79954368,14.60553 -29.21332968,17.10601 -4.082912,0.89447 -13.228707,1.09932 -17.392568,0.38956 -7.684667,-1.3099 -14.826032,-4.78601 -20.243231,-9.85353 -1.235876,-1.1561 -2.34574,-2.00331 -2.466365,-1.88269 -0.419354,0.41936 1.82542,3.25313 5.518616,6.96662 5.444747,5.47467 10.621697,8.42703 18.329747,10.45327 2.863126,0.75263 4.183189,0.89057 8.669079,0.90584 5.825053,0.0198 8.644051,-0.48472 14.223372,-2.54574 5.32475,-1.96698 9.246344,-1.24453 12.34344,2.27396 3.4641366,3.93547 3.2637624,9.65044 -0.469237,13.38344 -1.598626,1.59863 -2.534013,2.06358 -6.363377,3.16304 -6.633312,1.90452 -16.016255,2.47215 -23.015391,1.39233 z m -5.891029,-38.76907 c 3.702364,-1.22186 5.718443,-2.48813 8.654927,-5.43604 3.055069,-3.06697 4.624264,-5.78116 5.641237,-9.75748 1.294254,-5.06049 0.621256,-10.71455 -1.835749,-15.42272 -1.619864,-3.10403 -6.11407,-7.49138 -9.240217,-9.02053 -8.034566,-3.9301 -16.70687,-2.94942 -23.665874,2.67617 -2.527642,2.04331 -5.425341,6.1723 -6.526745,9.30007 -1.113243,3.16139 -1.380194,9.13585 -0.550679,12.32449 3.173021,12.19707 15.768422,19.21531 27.5231,15.33604 z m -7.055555,-9.9746 c -6.555309,-2.27721 -10.748832,-9.43743 -9.388118,-16.02973 1.47211,-7.13198 7.137495,-11.8903 14.174783,-11.9053 2.375034,-0.005 5.620279,0.89498 5.620279,1.55873 0,0.26249 -0.436562,0.5862 -0.970139,0.71936 -2.668079,0.66582 -4.67814,3.51237 -4.668502,6.6113 0.007,2.25003 0.974877,4.13255 2.937358,5.71316 1.235827,0.99535 1.581517,1.09187 3.910718,1.09187 2.21947,0 2.740932,-0.12881 3.97026,-0.98074 0.778358,-0.5394 1.62505,-1.37284 1.881533,-1.85208 1.10465,-2.06406 2.002822,-0.41454 1.5869,2.91438 -0.710307,5.68512 -4.542719,10.43319 -9.857499,12.21272 -2.318018,0.77613 -6.885573,0.74948 -9.197573,-0.0537 z m 165.805554,41.75634 c -8.0099,-1.60117 -14.120703,-6.6389 -17.671929,-14.56868 -1.718878,-3.83821 -2.598223,-7.99605 -2.817622,-13.32271 -0.317945,-7.719 0.192101,-8.21417 8.626611,-8.375 7.10217,-0.13543 7.83986,0.49929 8.29886,7.14027 0.42442,6.14121 2.55951,9.75642 6.51499,11.03156 2.55958,0.82513 3.77229,0.76855 5.52341,-0.25768 1.99781,-1.17078 2.99117,-3.4859 3.41189,-7.95165 0.31418,-3.3352 -0.10972,-13.25252 -0.6234,-14.58436 -0.20619,-0.53458 -0.50722,-0.61452 -1.69975,-0.45137 -4.0138,0.54914 -7.64215,0.63901 -9.42858,0.23354 -5.99652,-1.36107 -10.85956,-5.6872 -14.524363,-12.92084 -3.120795,-6.15986 -5.7721,-17.97502 -5.970068,-26.60475 -0.09562,-4.16818 -0.05549,-4.47058 0.732687,-5.52076 1.35969,-1.81166 3.196632,-2.41874 7.273435,-2.40373 5.348679,0.0197 7.033939,1.19748 7.609639,5.31821 1.07473,7.69264 1.53412,10.4263 2.09797,12.48406 0.34558,1.26118 0.71959,2.69537 0.83114,3.1871 0.19071,0.8406 1.73817,4.25104 2.92096,6.43741 0.81633,1.50893 3.04028,2.83666 4.29119,2.56191 3.67538,-0.80725 4.36774,-6.0662 2.55655,-19.41837 -1.70166,-12.54479 -1.74854,-13.70536 -0.62114,-15.38186 1.19144,-1.77173 2.75185,-2.33565 7.76771,-2.80725 l 4.44609,-0.41803 1.51956,0.89051 c 1.68204,0.98576 3.09943,3.13278 3.09943,4.695 0,0.54637 0.30759,2.82663 0.68355,5.06724 3.47059,20.68458 5.14053,36.30971 5.12938,47.99467 -0.0109,11.3887 -1.21602,18.87899 -4.05846,25.22361 -2.93959,6.5614 -8.43929,11.34703 -14.63085,12.73119 -2.56706,0.57388 -8.39566,0.56911 -11.28889,-0.009 z m 101.41821,-1.00608 c -2.35261,-1.2441 -2.91218,-2.65831 -3.23554,-8.17717 -0.80832,-13.79585 -1.30746,-70.88027 -0.69469,-79.44608 0.19385,-2.70927 0.36442,-3.37664 1.04941,-4.10545 0.97966,-1.04234 3.82231,-1.89319 8.53436,-2.55445 3.90324,-0.54776 5.39923,-0.30801 6.69685,1.07326 l 0.82734,0.88066 0.0286,37.01462 0.0286,37.01461 0.88194,0.95561 0.88195,0.95561 6.35,-0.21721 c 6.1589,-0.21066 10.44148,-0.41743 28.22222,-1.3626 9.6629,-0.51364 10.5495,-0.49256 11.7269,0.2789 1.71421,1.1232 2.19156,2.99921 2.20006,8.64636 0.007,4.882 -0.0325,5.17956 -0.78599,5.88552 -0.43656,0.40896 -1.23857,0.91209 -1.78223,1.11807 -1.44159,0.54619 -10.21648,1.03822 -25.64624,1.43803 -7.47007,0.19356 -17.78882,0.58808 -22.93056,0.8767 -11.64163,0.65349 -10.55091,0.67777 -12.35262,-0.27499 z m 109.03426,-2.41793 c -3.64589,-1.073 -5.72696,-4.79092 -8.06771,-14.41322 -2.35677,-9.68821 -3.84482,-16.38073 -6.19665,-27.86944 -2.19763,-10.73546 -2.55947,-12.17083 -3.06797,-12.17083 -0.82176,0 -0.82215,9.73167 0,21.87222 0.39377,5.82083 0.88438,14.11861 1.0903,18.4395 0.35856,7.52559 0.3447,7.92312 -0.3295,9.44724 -1.00584,2.27387 -2.65864,2.96582 -7.08423,2.96582 -4.41915,0 -6.07886,-0.69294 -7.07987,-2.95591 -0.65595,-1.48286 -0.72277,-2.87057 -1.07484,-22.32362 -0.2074,-11.40837 -0.32071,-29.39435 -0.25276,-39.96887 l 0.12357,-19.22639 0.88738,-1.76388 c 0.73251,-1.45603 1.23183,-1.93702 2.86099,-2.7558 1.90991,-0.95987 2.20049,-0.99859 8.99891,-1.19899 5.08292,-0.14983 7.38646,-0.0879 8.33176,0.22409 1.42187,0.46926 3.43175,2.61569 3.43175,3.6649 0,0.36046 0.38721,2.50711 0.8605,4.77032 0.47328,2.2632 1.19997,5.94055 1.61484,8.17186 0.86462,4.64994 1.68772,8.88167 2.95056,15.16945 0.48712,2.42535 1.22569,6.15597 1.6413,8.29028 0.41561,2.1343 1.05526,5.3093 1.42145,7.05555 0.36614,1.74625 1.07812,5.15938 1.5821,7.58473 0.50398,2.42534 1.22449,5.67972 1.60115,7.23194 0.37666,1.55222 0.6827,3.18439 0.68009,3.62704 -0.005,0.84956 0.8988,1.44536 1.3922,0.91772 0.26204,-0.28022 1.32221,-40.43319 1.52181,-57.63782 0.089,-7.66758 0.1863,-8.03357 2.44704,-9.20156 1.06857,-0.55207 2.05829,-0.67621 5.39119,-0.67621 4.68612,0 6.19315,0.44373 7.03485,2.07135 0.75254,1.45528 0.72361,9.1452 -0.1542,40.96754 -0.38266,13.87298 -0.69857,29.50986 -0.70203,34.74861 -0.004,5.31633 -0.16383,10.09242 -0.36294,10.80918 -0.19618,0.70629 -0.97063,1.97629 -1.72099,2.82222 l -1.36433,1.53804 -8.59575,0.0651 c -4.97914,0.0377 -9.10664,-0.0852 -9.80997,-0.2922 z M 55.791015,232.87028 C 44.78475,229.98483 37.776951,219.8514 34.439602,201.99568 c -0.715324,-3.82717 -0.792854,-5.35029 -0.808076,-15.875 -0.0157,-10.85847 0.03755,-11.89086 0.791584,-15.34583 2.546339,-11.66723 6.848083,-19.95869 13.236515,-25.51293 8.153823,-7.08911 17.601349,-8.40449 25.642558,-3.57021 5.088685,3.05925 8.758216,9.46753 9.84414,17.1913 0.6125,4.35648 0.508304,6.31663 -0.407334,7.66283 -1.180236,1.73521 -2.890813,2.21077 -7.14375,1.98604 -4.093023,-0.21628 -5.798802,-0.64348 -7.125307,-1.78449 -0.807166,-0.6943 -0.987217,-1.19445 -1.177568,-3.27116 -0.367598,-4.01043 -2.024994,-5.48005 -5.563366,-4.93306 -2.951162,0.45621 -6.610325,6.38426 -8.555908,13.86105 -0.950454,3.65256 -1.115318,4.98521 -1.282281,10.36507 -0.30421,9.80232 0.675256,17.50116 3.025811,23.78358 1.199423,3.20574 3.087288,5.73319 5.050684,6.7618 1.957161,1.02534 5.072302,0.33135 5.960265,-1.32782 0.224074,-0.41869 0.549955,-2.67461 0.724182,-5.01315 0.413812,-5.55447 0.865918,-6.5165 3.475432,-7.39541 1.363956,-0.4594 3.092919,-0.66897 5.820834,-0.70556 4.883128,-0.0655 6.028411,0.45123 6.951919,3.13659 1.125958,3.27403 0.601381,10.79225 -1.069791,15.33219 -2.189575,5.94825 -6.751161,11.26376 -11.879351,13.84273 -2.371231,1.19249 -7.269508,2.3895 -9.680359,2.36563 -1.07872,-0.0107 -3.094457,-0.3165 -4.47942,-0.67959 z m 118.581995,-0.54764 c -14.18727,-2.31349 -22.73511,-15.39201 -24.20182,-37.02974 -0.95081,-14.02689 1.54001,-28.15946 6.87052,-38.98194 0.78913,-1.60215 1.17987,-2.26094 3.24316,-5.46806 1.16339,-1.8083 6.10923,-6.92498 7.43133,-7.68798 5.49896,-3.17357 8.47097,-4.15885 13.23965,-4.38921 3.2102,-0.15507 4.13956,-0.0674 6.35,0.59926 3.56725,1.07583 5.95721,2.52082 8.04657,4.86505 3.62928,4.07195 5.27911,8.67188 5.53502,15.43233 0.19149,5.05857 -0.13505,6.28791 -2.04096,7.68415 -1.09054,0.79894 -5.68745,1.20556 -8.97922,0.79428 -1.74823,-0.21842 -2.27002,-0.46287 -3.39986,-1.5927 -1.01427,-1.01429 -1.33512,-1.61985 -1.33664,-2.5227 -0.007,-4.4876 -2.75068,-6.36625 -6.58544,-4.50988 -5.42033,2.62394 -9.02646,12.63485 -9.5419,26.48898 -0.44457,11.9498 2.50366,24.28365 6.27024,26.23142 1.21242,0.62697 3.11358,0.66633 4.99261,0.10335 2.17717,-0.65229 2.85221,-2.3063 2.92672,-7.17126 0.0658,-4.29379 0.323,-5.0627 2.05062,-6.13043 2.47333,-1.52861 12.30987,-1.60199 14.35241,-0.10708 2.18529,1.59936 2.54427,4.16139 1.55745,11.11492 -1.10681,7.799 -3.3285,12.93028 -7.37553,17.03477 -4.86269,4.93176 -11.05358,6.6043 -19.40493,5.24247 z M 1.1572179,228.07716 c -1.73320069,-1.17618 -2.4909285,-2.10626 -3.2084961,-3.93831 -1.2636676,-3.2263 0.2140655,-7.35307 3.2754533,-9.14716 3.5213007,-2.06362 8.1826168,-0.88917 10.2115019,2.57286 1.820781,3.10693 1.415771,6.78959 -1.02204,9.29317 -1.5424252,1.58404 -2.9857802,2.12546 -5.666168,2.12546 -1.8397325,0 -2.5010991,-0.1669 -3.5902511,-0.90602 z M 373.86884,227.58657 c -8.24629,-1.17884 -14.56464,-8.39184 -17.93596,-20.47561 -1.94501,-6.97143 -2.34876,-10.51915 -2.34876,-20.6375 0,-9.07853 0.0454,-9.7317 0.96781,-13.93472 2.36943,-10.79622 5.56835,-17.32776 11.07323,-22.60926 4.74811,-4.55544 11.52882,-7.83043 16.21258,-7.83043 2.31817,0 5.49179,0.99688 7.7615,2.43797 1.88425,1.19637 6.12178,5.52992 6.9742,7.13224 3.20844,6.03104 3.89005,7.81055 4.65363,12.14925 0.60364,3.43015 0.6707,10.41129 0.12443,12.95844 -0.67257,3.13607 -2.50709,4.35572 -14.35037,9.54053 -2.66312,1.16586 -5.15951,2.2621 -5.54757,2.43608 -0.38805,0.17398 -1.65805,0.70831 -2.82222,1.18741 -9.67941,3.98338 -9.11331,3.41198 -8.44751,8.52693 1.19253,9.16121 4.08746,13.22695 9.11662,12.80365 0.99018,-0.0833 2.27658,-0.37889 2.85867,-0.65676 1.46071,-0.69731 2.58974,-3.22732 3.33308,-7.46916 0.97553,-5.56694 2.06653,-6.45699 6.61783,-5.399 5.35446,1.24471 6.46341,1.63369 7.66487,2.68858 1.72914,1.51821 2.13251,2.98781 1.62108,5.90626 -1.72466,9.8422 -7.79526,17.477 -16.15789,20.32132 -2.73597,0.93056 -8.21027,1.37536 -11.36925,0.92378 z m 2.29306,-51.90888 c 2.32833,-1.18253 4.48394,-2.37255 4.79026,-2.6445 0.30632,-0.27195 0.70319,-0.49455 0.88194,-0.49468 0.17876,-1.2e-4 1.23783,-0.71681 2.35349,-1.59265 1.93749,-1.52103 2.02847,-1.66424 2.02847,-3.19334 0,-4.5184 -2.08294,-8.97212 -4.19618,-8.97212 -3.0473,0 -8.25987,7.39315 -10.44233,14.81062 -0.94051,3.19651 -0.96538,4.2406 -0.10104,4.23805 0.24864,-7.1e-4 2.35705,-0.96886 4.68539,-2.15138 z m -124.53056,32.56046 c -3.46403,-1.20265 -5.46346,-2.45338 -7.76111,-4.85488 -5.77885,-6.04006 -8.64432,-16.44654 -8.63882,-31.3737 0.004,-6.6464 0.52412,-12.11296 1.55466,-16.29078 1.90969,-7.74183 3.89668,-11.7584 7.97196,-16.1149 1.70801,-1.82588 2.83609,-2.63622 5.53297,-3.97465 l 3.38751,-1.68119 4.62086,0.008 c 4.25574,0.008 4.81598,0.0877 7.09031,1.01294 7.85265,3.19466 12.65195,10.66038 15.42023,23.9875 1.14935,5.53327 1.15147,16.78541 0.005,23.98889 -2.0429,12.83039 -5.43874,19.67056 -11.74059,23.64874 -2.73456,1.72624 -5.41087,2.38382 -10.21055,2.50876 -4.07169,0.10599 -4.62608,0.0397 -7.23195,-0.86504 z m 10.02101,-18.32511 c 2.61278,-2.55913 3.98018,-8.42087 4.01186,-17.19792 0.0495,-13.70324 -3.49204,-21.43603 -8.98278,-19.61368 -2.19664,0.72906 -3.29787,1.67348 -4.40168,3.77498 -1.69298,3.22317 -2.37885,7.37969 -2.35162,14.2512 0.051,12.86468 3.27565,20.03501 9.03701,20.09453 1.07907,0.0112 1.59681,-0.24108 2.68721,-1.30911 z m -378.74484,17.56498 c -2.78021,-1.69519 -2.88682,-4.7178 -0.38237,-10.84065 2.18605,-5.34448 4.53955,-9.20918 7.59126,-12.46571 2.99498,-3.19598 4.33788,-3.93821 5.39479,-2.98172 1.00596,0.91038 0.88206,1.59575 -0.8764,4.84799 -2.0502,3.79182 -3.26029,8.41312 -3.68529,14.07398 -0.21301,2.83724 -0.54384,4.86948 -0.90705,5.57185 -0.7896,1.52693 -2.49064,2.48289 -4.41804,2.48289 -0.9536,0 -2.03848,-0.27497 -2.7169,-0.68863 z m 38.89702,-80.60261 c -2.689027,-0.99392 -4.437422,-2.89634 -5.173253,-5.62901 -1.369353,-5.08539 3.984854,-10.4396 9.070241,-9.07024 7.09979,1.91177 8.146439,11.00407 1.644943,14.28973 -1.660748,0.83929 -3.926258,1.0067 -5.541931,0.40952 z"
         id="path4520"
         inkscape:connector-curvature="0" />
    </g>
  </g>
</svg>
