<?xml version="1.0" encoding="UTF-8" standalone="no"?>
<!-- Generator: Adobe Illustrator 23.0.6, SVG Export Plug-In . SVG Version: 6.00 Build 0)  -->

<svg
   xmlns:dc="http://purl.org/dc/elements/1.1/"
   xmlns:cc="http://creativecommons.org/ns#"
   xmlns:rdf="http://www.w3.org/1999/02/22-rdf-syntax-ns#"
   xmlns:svg="http://www.w3.org/2000/svg"
   xmlns="http://www.w3.org/2000/svg"
   xmlns:sodipodi="http://sodipodi.sourceforge.net/DTD/sodipodi-0.dtd"
   xmlns:inkscape="http://www.inkscape.org/namespaces/inkscape"
   version="1.1"
   id="Layer_1"
   x="0px"
   y="0px"
   viewBox="0 0 729.29294 237.65243"
   xml:space="preserve"
   sodipodi:docname="everbloom_dark.svg"
   width="729.29297"
   height="237.65244"
   inkscape:version="0.92.1 r15371"><metadata
   id="metadata67"><rdf:RDF><cc:Work
       rdf:about=""><dc:format>image/svg+xml</dc:format><dc:type
         rdf:resource="http://purl.org/dc/dcmitype/StillImage" /><dc:title /></cc:Work></rdf:RDF></metadata><defs
   id="defs65" /><sodipodi:namedview
   pagecolor="#ffffff"
   bordercolor="#666666"
   borderopacity="1"
   objecttolerance="10"
   gridtolerance="10"
   guidetolerance="10"
   inkscape:pageopacity="0"
   inkscape:pageshadow="2"
   inkscape:window-width="2560"
   inkscape:window-height="1377"
   id="namedview63"
   showgrid="false"
   fit-margin-top="0"
   fit-margin-left="0"
   fit-margin-right="0"
   fit-margin-bottom="0"
   inkscape:zoom="1.9486791"
   inkscape:cx="328.11127"
   inkscape:cy="199.45068"
   inkscape:window-x="1912"
   inkscape:window-y="-8"
   inkscape:window-maximized="1"
   inkscape:current-layer="g58" />
<style
   type="text/css"
   id="style2">
	.st0{fill:#E84644;}
	.st1{fill:#010202;}
</style>
<g
   id="g28"
   transform="translate(-227.84703,-302.11639)">
	<path
   class="st0"
   d="m 283.71,445.49 c 0.01,0 0.03,0 0.04,0 4.89,0 9.77,-0.65 14.56,-1.93 10.73,-2.87 20.11,-8.67 27.35,-16.86 -5.58,-1.04 -11.02,-2.75 -16.22,-5.12 -10.93,6.36 -20.1,16.64 -25.73,23.91 z"
   id="path4"
   inkscape:connector-curvature="0"
   style="fill:#e84644" />
	<path
   class="st0"
   d="m 344.3,361.53 c -7.93,13.74 -9.59,30.49 -4.66,45.55 3.69,-4.32 7.88,-8.17 12.52,-11.47 -0.05,-12.61 -4.35,-25.66 -7.82,-34.15 -0.01,0.02 -0.03,0.04 -0.04,0.07 z"
   id="path6"
   inkscape:connector-curvature="0"
   style="fill:#e84644" />
	<path
   class="st0"
   d="m 392.84,396.45 c -0.02,0 -0.05,0 -0.07,0 -16.02,0 -31.19,6.79 -41.8,18.72 5.62,1.02 11.06,2.73 16.25,5.09 10.88,-6.34 20.01,-16.57 25.62,-23.81 z"
   id="path8"
   inkscape:connector-curvature="0"
   style="fill:#e84644" />
	<path
   class="st0"
   d="m 442.46,363.76 c -0.41,-0.74 -0.82,-1.49 -1.25,-2.23 -0.47,-0.81 -0.94,-1.61 -1.43,-2.41 -4.8,-7.46 -11.22,-13.56 -19.04,-18.08 -21.59,-12.46 -48.78,-9.11 -66.69,8.05 3.46,7.25 9.91,22.58 11.57,39.01 8.72,-3.67 17.97,-5.49 27.19,-5.49 12.07,0 24.1,3.13 34.85,9.33 6.97,4.02 13.09,9.12 18.24,15.18 3.46,-10.36 3.79,-21.37 0.92,-32.09 -1.06,-3.91 -2.52,-7.7 -4.36,-11.27 z"
   id="path10"
   inkscape:connector-curvature="0"
   style="fill:#e84644" />
	<path
   class="st0"
   d="m 353.87,537.57 1.07,-0.32 c 9.16,-2.87 17.49,-8.07 24.07,-15.03 l 0.17,-0.19 c 0.31,-0.33 0.61,-0.66 0.91,-0.99 l 0.43,-0.49 c 0.21,-0.24 0.41,-0.48 0.61,-0.71 l 0.11,-0.12 c 0.14,-0.16 0.28,-0.33 0.41,-0.5 l 0.38,-0.48 c 0.44,-0.55 0.87,-1.1 1.28,-1.66 l 0.14,-0.19 c 0.25,-0.34 0.49,-0.69 0.74,-1.03 l 0.11,-0.16 c 9.14,-13.17 12.14,-29.56 8.33,-45.19 -8.01,-0.63 -24.5,-2.72 -39.55,-9.48 -2.72,21.68 -15.39,40.88 -34.34,51.82 -6.94,4.01 -14.4,6.76 -22.23,8.2 0.72,0.81 1.46,1.59 2.22,2.35 14.38,14.4 35.51,19.82 55.14,14.17 z"
   id="path12"
   inkscape:connector-curvature="0"
   style="fill:#e84644" />
	<path
   class="st0"
   d="m 229.78,404 c 3.87,14.44 13.13,26.5 26.07,33.98 3.9,2.25 8.04,4.03 12.32,5.28 4.56,-6.63 14.61,-19.89 28.02,-29.55 -7.43,-5.62 -13.74,-12.74 -18.36,-20.74 -10.32,-17.88 -12.19,-38.9 -5.3,-58.25 -15.52,3.24 -29.22,13.06 -37.16,26.82 -7.48,12.94 -9.46,28.02 -5.59,42.46 z"
   id="path14"
   inkscape:connector-curvature="0"
   style="fill:#e84644" />
	<path
   class="st0"
   d="m 323.81,304.02 c -2.62,0.7 -5.21,1.6 -7.7,2.67 l -0.34,0.15 c -0.23,0.1 -0.44,0.2 -0.66,0.29 -0.32,0.14 -0.64,0.29 -0.96,0.44 -1.34,0.64 -2.61,1.31 -3.84,2.03 -6.82,3.94 -12.62,9.15 -17.23,15.49 l -1.76,2.56 c -8.37,12.98 -11.03,28.83 -7.39,43.73 8.01,0.63 24.52,2.71 39.58,9.49 1.15,-9.25 4.16,-18.27 8.78,-26.27 9.32,-16.15 24.38,-27.7 42.39,-32.53 1.77,-0.47 3.58,-0.88 5.4,-1.22 -12.07,-13.54 -30.31,-20.52 -48.51,-18.34 l -1.08,0.14 c -2.24,0.32 -4.49,0.78 -6.68,1.37 z"
   id="path16"
   inkscape:connector-curvature="0"
   style="fill:#e84644" />
	<path
   class="st0"
   d="m 386.8,455.94 c -2.44,-4.26 -5.44,-8.17 -8.94,-11.67 -7.85,-7.84 -17.54,-13.07 -28.24,-15.25 1.91,5.36 3.14,10.93 3.69,16.61 10.94,6.27 24.4,9.07 33.49,10.31 z"
   id="path18"
   inkscape:connector-curvature="0"
   style="fill:#e84644" />
	<path
   class="st0"
   d="m 336.96,434.83 c -3.69,4.35 -7.9,8.21 -12.54,11.52 0.06,12.6 4.35,25.62 7.81,34.1 8.05,-13.89 9.77,-30.44 4.73,-45.62 z"
   id="path20"
   inkscape:connector-curvature="0"
   style="fill:#e84644" />
	<path
   class="st0"
   d="m 289.78,385.96 c 0.01,0.03 0.03,0.05 0.04,0.08 7.94,13.75 21.63,23.57 37.15,26.81 -1.89,-5.34 -3.11,-10.89 -3.66,-16.56 -10.95,-6.29 -24.43,-9.09 -33.53,-10.33 z"
   id="path22"
   inkscape:connector-curvature="0"
   style="fill:#e84644" />
	<path
   class="st0"
   d="m 283.82,508.37 h 0.07 c 9.76,0 19.41,-2.6 27.92,-7.51 3.9,-2.25 7.5,-4.95 10.73,-8.05 -3.45,-7.25 -9.9,-22.56 -11.56,-38.97 -2.95,1.24 -5.99,2.28 -9.08,3.11 -5.96,1.6 -12.08,2.41 -18.18,2.41 -12.13,0 -24.17,-3.24 -34.8,-9.38 -6.97,-4.02 -13.08,-9.1 -18.22,-15.11 -4.92,15.05 -3.26,31.79 4.66,45.52 9.96,17.23 28.53,27.95 48.46,27.98 z"
   id="path24"
   inkscape:connector-curvature="0"
   style="fill:#e84644" />
	<path
   class="st0"
   d="m 442.44,478.13 0.24,-0.47 c 0.15,-0.28 0.28,-0.55 0.41,-0.82 8.1,-16.72 7.41,-36.32 -1.87,-52.42 l -0.64,-1.12 c -4.84,-7.97 -11.68,-14.65 -19.85,-19.37 -3.9,-2.25 -8.04,-4.02 -12.34,-5.27 -4.55,6.61 -14.59,19.85 -27.97,29.5 2.55,1.94 4.97,4.05 7.23,6.31 19.19,19.19 25.43,47.34 16.42,72.71 15.51,-3.25 29.2,-13.07 37.13,-26.81 0.44,-0.73 0.84,-1.48 1.24,-2.24 z"
   id="path26"
   inkscape:connector-curvature="0"
   style="fill:#e84644" />
</g>
<g
   id="g60"
   transform="translate(-227.84703,-302.11639)">
	<g
   id="g58">
		<path
   class="st1"
   d="m 491.05,350.22 v 14.1 h 27.3 v 14.3 h -27.3 v 15.1 h 30.8 v 15.2 h -47 v -74 h 47 v 15.3 z"
   id="path30"
   inkscape:connector-curvature="0"
   style="fill:#ffffff;fill-opacity:1" />
		<path
   class="st1"
   d="m 580.15,358.92 -20.9,50 h -15.2 l -19.6,-50 h 16.7 l 11,31.5 12,-31.5 z"
   id="path32"
   inkscape:connector-curvature="0"
   style="fill:#ffffff;fill-opacity:1" />
		<path
   class="st1"
   d="m 594.25,389.02 c 0.6,5.4 4.5,8.5 10.4,8.5 5.4,0 9.8,-2.6 11.5,-6.2 l 12.1,5.4 c -3.1,8 -12.5,13.4 -23.5,13.4 -15.1,0 -25.6,-10 -25.6,-26.3 0,-15.9 10.4,-26.5 25.7,-26.5 14.9,0 25,9.7 25,24.2 0,3.5 -0.4,6 -1,7.5 z m 10.3,-19 c -5.4,0 -9.4,3.4 -10.1,8.5 h 20 c -0.4,-5.4 -4.4,-8.5 -9.9,-8.5 z"
   id="path34"
   inkscape:connector-curvature="0"
   style="fill:#ffffff;fill-opacity:1" />
		<path
   class="st1"
   d="m 670.15,358.02 v 15.2 c -9.5,-1.8 -17.9,3.2 -17.9,14 v 21.7 h -15.7 v -50 h 14.4 l 1,6.6 c 2.7,-5.6 9.5,-8.8 18.2,-7.5 z"
   id="path36"
   inkscape:connector-curvature="0"
   style="fill:#ffffff;fill-opacity:1" />
		<path
   class="st1"
   d="m 731.55,384.42 c -0.1,16.7 -11,25.8 -25,25.8 -8.6,0 -13.8,-3.7 -16.2,-6.7 l -0.8,5.4 h -14.1 v -74 h 15.2 v 28.8 c 3.6,-4.4 10,-6.5 16,-6.5 13.8,0 25,9.3 24.9,27.2 z m -15.51,-0.8 c 0,-7.9 -5.5,-12.5 -12.5,-12.5 -7,0 -12.6,4.6 -12.6,12.5 0,7.9 5.6,12.5 12.6,12.5 7,0 12.5,-4.6 12.5,-12.5 z"
   id="path38"
   inkscape:connector-curvature="0"
   style="fill:#ffffff;fill-opacity:1" />
		<path
   class="st1"
   d="m 738.34,334.92 h 15.5 v 74 h -15.5 z"
   id="path40"
   inkscape:connector-curvature="0"
   style="fill:#ffffff;fill-opacity:1" />
		<path
   class="st1"
   d="m 787.24,357.42 c 15.9,0 26.5,10.6 26.5,26.4 0,15.8 -10.6,26.3 -26.5,26.3 -16,0 -26.6,-10.5 -26.6,-26.3 0,-15.8 10.6,-26.4 26.6,-26.4 z m 0,38.9 c 6.6,0 11,-5 11,-12.6 0,-7.5 -4.4,-12.5 -11,-12.5 -6.7,0 -11.1,5 -11.1,12.5 0,7.6 4.4,12.6 11.1,12.6 z"
   id="path42"
   inkscape:connector-curvature="0"
   style="fill:#ffffff;fill-opacity:1" />
		<path
   class="st1"
   d="m 844.14,357.42 c 15.9,0 26.5,10.6 26.5,26.4 0,15.8 -10.6,26.3 -26.5,26.3 -16,0 -26.6,-10.5 -26.6,-26.3 0,-15.8 10.6,-26.4 26.6,-26.4 z m 0,38.9 c 6.6,0 11,-5 11,-12.6 0,-7.5 -4.4,-12.5 -11,-12.5 -6.7,0 -11.1,5 -11.1,12.5 0,7.6 4.4,12.6 11.1,12.6 z"
   id="path44"
   inkscape:connector-curvature="0"
   style="fill:#ffffff;fill-opacity:1" />
		<path
   class="st1"
   d="m 957.14,377.62 v 31.3 h -15 v -28.9 c 0,-6.3 -3.3,-9.3 -8.2,-9.3 -4.4,0 -8.8,2.4 -8.8,10.9 v 27.3 h -15.2 v -28.9 c 0,-6.2 -3.2,-9.2 -8.1,-9.2 -4.4,0 -8.9,2.4 -8.9,10.8 v 27.3 h -15.5 v -50 h 14.4 l 0.5,4 c 2.8,-3.8 7.6,-5.7 13.7,-5.7 7.4,0 13.2,3 16.4,8.9 2.5,-5.4 7.9,-8.9 15.8,-8.9 11.2,0 18.9,7.2 18.9,20.4 z"
   id="path46"
   inkscape:connector-curvature="0"
   style="fill:#ffffff;fill-opacity:1" />
		<path
   class="st0"
   d="m 543.25,460.12 v 43.8 h -13.9 l -0.9,-6.9 c -4.9,5.3 -13,8 -22.1,8 -21,0 -35.2,-14.6 -35.2,-37.5 0,-23.3 14.8,-39 36.9,-39 15.3,0 28.2,7.6 32.8,18.9 l -14.5,7.7 c -2.9,-7 -10,-11 -18.3,-11 -12.4,0 -20.1,8.7 -20.1,23 0,13.9 7.3,23.1 20.2,23.1 10.6,0 18.7,-6.3 20,-15.9 h -21.7 v -14.2 z"
   id="path48"
   inkscape:connector-curvature="0"
   style="fill:#e84644" />
		<path
   class="st0"
   d="m 581.55,503.92 c -0.2,-1.6 -0.4,-3.1 -0.5,-4.4 -2.7,3.5 -8.2,5.7 -14.5,5.7 -10.2,0 -17.2,-6.2 -17.3,-15.5 -0.1,-9.1 6.8,-16.6 20.3,-16.6 h 11 v -1.6 c 0,-4.8 -3.2,-7 -8,-7 -5.6,0 -9.9,2.7 -11.7,7.1 l -10.1,-6.7 c 3.5,-8.1 12.4,-12.6 22.8,-12.6 14.9,0 21.9,7.5 21.9,20.7 v 19 c 0,5.5 0.4,10.3 1,11.9 z m -1,-20.3 h -9.6 c -4.3,0 -6.3,1.9 -6.3,4.7 0,3.4 2.6,5.1 6.5,5.1 5.7,0 9.4,-3.7 9.4,-9.3 z"
   id="path50"
   inkscape:connector-curvature="0"
   style="fill:#e84644" />
		<path
   class="st0"
   d="m 684.45,472.62 v 31.3 h -15 v -28.9 c 0,-6.3 -3.3,-9.3 -8.2,-9.3 -4.4,0 -8.8,2.4 -8.8,10.9 v 27.3 h -15.2 v -28.9 c 0,-6.2 -3.2,-9.2 -8.1,-9.2 -4.4,0 -8.9,2.4 -8.9,10.8 v 27.3 h -15.5 v -50 h 14.4 l 0.5,4 c 2.8,-3.8 7.6,-5.7 13.7,-5.7 7.4,0 13.2,3 16.4,8.9 2.5,-5.4 7.9,-8.9 15.8,-8.9 11.2,0 18.9,7.2 18.9,20.4 z"
   id="path52"
   inkscape:connector-curvature="0"
   style="fill:#e84644" />
		<path
   class="st0"
   d="m 705.64,484.02 c 0.6,5.4 4.5,8.5 10.4,8.5 5.4,0 9.8,-2.6 11.5,-6.2 l 12.1,5.4 c -3.1,8 -12.5,13.4 -23.5,13.4 -15.1,0 -25.6,-10 -25.6,-26.3 0,-15.9 10.4,-26.5 25.7,-26.5 14.9,0 25,9.7 25,24.2 0,3.5 -0.4,6 -1,7.5 z m 10.3,-19 c -5.4,0 -9.4,3.4 -10.1,8.5 h 20 c -0.4,-5.4 -4.4,-8.5 -9.9,-8.5 z"
   id="path54"
   inkscape:connector-curvature="0"
   style="fill:#e84644" />
		<path
   class="st0"
   d="m 764.94,493.32 c 3.4,0 5.2,-1.6 5.2,-3.9 0,-1.7 -1,-3.2 -3.7,-3.9 l -8,-2 c -9.5,-2.4 -13.8,-7.8 -13.8,-14.7 0,-9.7 8.4,-16.5 20,-16.5 10.9,0 19,5.9 20.5,14.7 l -13.3,3 c -0.5,-3.5 -3.5,-5.8 -7.4,-5.8 -2.8,0 -4.5,1.4 -4.5,3.5 0,3 3.2,3.6 4.4,3.9 l 8.4,2.1 c 7.9,2 12.9,7.3 12.9,15.1 0,9.9 -8.2,16.4 -20.5,16.4 -11.4,0 -19.4,-5.6 -21.4,-14.3 l 13.1,-4.1 c 0.6,3.9 4,6.5 8.1,6.5 z"
   id="path56"
   inkscape:connector-curvature="0"
   style="fill:#e84644" />
	</g>
</g>
</svg>