<?xml version="1.0" encoding="UTF-8"?>
<svg width="109.71mm" height="32.912mm" version="1.1" viewBox="0 0 109.71 32.912" xmlns="http://www.w3.org/2000/svg" xmlns:cc="http://creativecommons.org/ns#" xmlns:dc="http://purl.org/dc/elements/1.1/" xmlns:rdf="http://www.w3.org/1999/02/22-rdf-syntax-ns#">
<metadata>
<rdf:RDF>
<cc:Work rdf:about="">
<dc:format>image/svg+xml</dc:format>
<dc:type rdf:resource="http://purl.org/dc/dcmitype/StillImage"/>
<dc:title/>
</cc:Work>
</rdf:RDF>
</metadata>
<g transform="translate(-40.596 -169.48)">
<g transform="matrix(.32393 0 0 .32393 53.948 116.09)" stroke-width=".084667">
<path d="m-41.219 215.62v-50.8h338.67v101.6h-338.67z" fill="#fdfefe"/>
<path d="m-41.219 215.62v-50.8h338.67v101.6h-338.67zm48.26 3.81v-6.35h-8.4667v4.2333h4.2333v4.2333h-12.7v-12.7h16.933v-4.2333h-16.933v4.2333h-4.2333v12.7h4.2333v4.2333h16.933zm25.4-2.1167v-8.4667h-4.2333v-4.2333h-12.7v4.2333h12.7v4.2333h-12.7v4.2333h-4.2333v4.2333h4.2333v4.2333h16.933zm-16.933 2.1167v-2.1167h12.7v4.2333h-12.7zm25.4-2.1167v-8.4667h4.2333v8.4667h4.2333v-8.4667h4.2333v16.933h4.2333v-16.933h-4.2333v-4.2333h-4.2333v4.2333h-4.2333v-4.2333h-8.4667v21.167h4.2333zm42.333 6.35v-2.1167h-16.933v-4.2333h16.933v-8.4667h-4.2333v-4.2333h-12.7v4.2333h-4.2333v12.7h4.2333v4.2333h16.933zm-16.933-12.7v-2.1167h12.7v4.2333h-12.7zm25.4 6.35v-8.4667h4.2333v8.4667h4.2333v-8.4667h4.2333v16.933h4.2333v-16.933h-4.2333v-4.2333h-4.2333v4.2333h-4.2333v-4.2333h-8.4667v21.167h4.2333zm38.1 6.35v-2.1167h4.2333v-12.7h-4.2333v-4.2333h-12.7v4.2333h-4.2333v12.7h4.2333v4.2333h12.7zm-12.7-8.4667v-6.35h12.7v12.7h-12.7zm42.333-4.2333v-14.817h-4.2333v12.7h-4.2333v-4.2333h-8.4667v4.2333h-4.2333v12.7h4.2333v4.2333h16.933zm-16.933 4.2333v-6.35h8.4667v4.2333h4.2333v8.4667h-12.7zm42.333 8.4667v-2.1167h-16.933v-4.2333h16.933v-8.4667h-4.2333v-4.2333h-12.7v4.2333h-4.2333v12.7h4.2333v4.2333h16.933zm-16.933-12.7v-2.1167h12.7v4.2333h-12.7zm46.567 12.7v-2.1167h4.2333v-12.7h-4.2333v-4.2333h-12.7v4.2333h-4.2333v12.7h4.2333v4.2333h12.7zm-12.7-8.4667v-6.35h12.7v12.7h-12.7zm25.4 2.1167v-8.4667h12.7v16.933h4.2333v-16.933h-4.2333v-4.2333h-16.933v21.167h4.2333zm42.333 6.35v-2.1167h-16.933v-4.2333h16.933v-8.4667h-4.2333v-4.2333h-12.7v4.2333h-4.2333v12.7h4.2333v4.2333h16.933zm-16.933-12.7v-2.1167h12.7v4.2333h-12.7z" fill="#fb3621"/>
<path d="m-9.8927 227.9v-2.1167h-4.2333v-4.2333h4.2333v4.2333h16.933v4.2333h-16.933zm25.4 0v-2.1167h-4.2333v-4.2333h4.2333v-4.2333h12.7v4.2333h-12.7v4.2333h16.933v4.2333h-16.933zm21.167 0v-2.1167h4.2333v4.2333h-4.2333zm16.933 0v-2.1167h4.2333v4.2333h-4.2333zm12.7 0v-2.1167h-4.2333v-4.2333h4.2333v-4.2333h16.933v4.2333h-16.933v4.2333h16.933v4.2333h-16.933zm21.167 0v-2.1167h4.2333v4.2333h-4.2333zm16.933 0v-2.1167h4.2333v4.2333h-4.2333zm12.7 0v-2.1167h-4.2333v-4.2333h4.2333v4.2333h12.7v-4.2333h4.2333v4.2333h-4.2333v4.2333h-12.7zm25.4 0v-2.1167h-4.2333v-4.2333h4.2333v4.2333h16.933v4.2333h-16.933zm25.4 0v-2.1167h-4.2333v-4.2333h4.2333v-4.2333h16.933v4.2333h-16.933v4.2333h16.933v4.2333h-16.933zm33.867 0v-2.1167h-4.2333v-4.2333h4.2333v4.2333h12.7v-4.2333h4.2333v4.2333h-4.2333v4.2333h-12.7zm21.167 0v-2.1167h4.2333v4.2333h-4.2333zm16.933 0v-2.1167h4.2333v4.2333h-4.2333zm12.7 0v-2.1167h-4.2333v-4.2333h4.2333v-4.2333h16.933v4.2333h-16.933v4.2333h16.933v4.2333h-16.933zm-254-8.4667v-2.1167h4.2333v4.2333h-4.2333zm46.567 0v-2.1167h4.2333v4.2333h-4.2333zm50.8 0v-2.1167h4.2333v4.2333h-4.2333zm55.033-4.2333v-2.1167h-8.4667v-4.2333h8.4667v4.2333h4.2333v4.2333h-4.2333zm-160.87-4.2333v-2.1167h16.933v4.2333h-16.933zm25.4 0v-2.1167h12.7v4.2333h-12.7zm25.4 0v-2.1167h4.2333v4.2333h-4.2333zm8.4667 0v-2.1167h4.2333v4.2333h-4.2333zm16.933 0v-2.1167h12.7v4.2333h-12.7zm25.4 0v-2.1167h4.2333v4.2333h-4.2333zm8.4667 0v-2.1167h4.2333v4.2333h-4.2333zm16.933 0v-2.1167h12.7v4.2333h-12.7zm50.8 0v-2.1167h12.7v4.2333h-12.7zm33.867 0v-2.1167h12.7v4.2333h-12.7zm25.4 0v-2.1167h12.7v4.2333h-12.7zm25.4 0v-2.1167h12.7v4.2333h-12.7z" fill="#bd0e03"/>
</g>
</g>
</svg>
