<?xml version="1.0" encoding="utf-8"?>
<!-- Generator: Adobe Illustrator 23.0.1, SVG Export Plug-In . SVG Version: 6.00 Build 0)  -->
<svg version="1.1" id="Layer_1" xmlns="http://www.w3.org/2000/svg" xmlns:xlink="http://www.w3.org/1999/xlink" x="0px" y="0px"
	 viewBox="0 0 234.8 60.5" style="enable-background:new 0 0 234.8 60.5;" xml:space="preserve">
<g>
	<g>
		<g>
			<path d="M103.8,49c0,1.9,5.4,1.3,5.4,4.8c0,1.9-1.4,3.1-3.9,3.1c-1.8,0-2.9-0.4-3.5-1c-0.2-0.2-0.3-0.3-0.3-0.5
				c0-0.2,0.1-0.4,0.3-0.5l0.3-0.2c0.2-0.2,0.4-0.3,0.6-0.3c0.2,0,0.4,0.1,0.6,0.2c0.5,0.4,1.1,0.5,2.1,0.5c1.1,0,1.9-0.5,1.9-1.3
				c0-2-5.4-1.1-5.4-4.8c0-1.8,1.4-2.9,3.8-2.9c1.2,0,2.2,0.3,3,0.8c0.1,0.1,0.3,0.2,0.3,0.5c0,0.2-0.1,0.3-0.3,0.5l-0.3,0.2
				c-0.3,0.2-0.4,0.3-0.6,0.3c-0.2,0-0.3-0.1-0.4-0.2c-0.4-0.2-0.9-0.4-1.5-0.4C104.4,47.9,103.8,48.3,103.8,49z"/>
			<path d="M124.4,47v0.3c0,0.6-0.2,0.7-0.7,0.7h-2.3V56c0,0.6-0.1,0.7-0.7,0.7h-0.6c-0.6,0-0.7-0.1-0.7-0.7v-7.9H117
				c-0.6,0-0.8-0.1-0.8-0.7V47c0-0.6,0.2-0.7,0.8-0.7h6.7C124.3,46.3,124.4,46.4,124.4,47z"/>
			<path d="M138.6,47c0-0.6,0.2-0.7,0.8-0.7h0.6c0.6,0,0.7,0.1,0.7,0.7v6c0,2.3-1.5,3.8-4.3,3.8c-2.8,0-4.3-1.5-4.3-3.8v-6
				c0-0.6,0.1-0.7,0.7-0.7h0.5c0.6,0,0.7,0.1,0.7,0.7v5.9c0,1.2,0.7,2.1,2.3,2.1c1.6,0,2.2-1,2.2-2.1L138.6,47L138.6,47z"/>
			<path d="M149.3,47c0-0.6,0.1-0.7,0.7-0.7h2.6c3.6,0,5.9,2,5.9,5.3c0,3.3-2.2,5.2-5.9,5.2H150c-0.6,0-0.7-0.1-0.7-0.7L149.3,47
				L149.3,47z M151.3,48.1v6.8h1.3c2.6,0,3.7-1.3,3.7-3.4c0-2.2-1.4-3.4-3.7-3.4C152.7,48.1,151.3,48.1,151.3,48.1z"/>
			<path d="M166.5,47c0-0.6,0.2-0.7,0.7-0.7h0.6c0.6,0,0.7,0.1,0.7,0.7v9c0,0.6-0.1,0.7-0.7,0.7h-0.6c-0.6,0-0.7-0.1-0.7-0.7V47z"/>
			<path d="M182.2,56.9c-3.4,0-5.6-2.1-5.6-5.4c0-3.3,2.2-5.4,5.6-5.4c3.5,0,5.6,2.1,5.6,5.4C187.9,54.8,185.7,56.9,182.2,56.9z
				 M182.2,55c2.2,0,3.5-1.4,3.5-3.5c0-2.1-1.3-3.5-3.5-3.5c-2.2,0-3.5,1.4-3.5,3.5C178.8,53.6,180,55,182.2,55z"/>
			<path d="M197.4,49c0,1.9,5.4,1.3,5.4,4.8c0,1.9-1.4,3.1-3.9,3.1c-1.8,0-2.9-0.4-3.5-1c-0.2-0.2-0.3-0.3-0.3-0.5
				c0-0.2,0.1-0.4,0.3-0.5l0.3-0.2c0.2-0.2,0.4-0.3,0.6-0.3c0.2,0,0.4,0.1,0.6,0.2c0.5,0.4,1.1,0.5,2,0.5c1.1,0,1.9-0.5,1.9-1.3
				c0-2-5.4-1.1-5.4-4.8c0-1.8,1.4-2.9,3.8-2.9c1.2,0,2.2,0.3,3,0.8c0.1,0.1,0.3,0.2,0.3,0.5c0,0.2-0.1,0.3-0.3,0.5l-0.3,0.2
				c-0.3,0.2-0.4,0.3-0.6,0.3c-0.2,0-0.3-0.1-0.4-0.2c-0.4-0.2-0.9-0.4-1.5-0.4C198,47.9,197.4,48.3,197.4,49z"/>
		</g>
		<g>
			<path d="M114.4,31.6c-0.5-0.8-1.2-1.6-1.2-1.6v-0.1c3.1-1.1,5.2-3.5,5.2-7c0-5.1-4-8.2-9.7-8.2H97.8c-0.2,0-0.5,0.2-0.5,0.5v8.8
				h5.3v-4.8h5.6c2.9,0,4.8,1.4,4.8,3.7c0,2.3-1.9,3.7-4.8,3.7h-2.5h-1.9h-1.2H89.9h0c-0.1,4.6-3.5,7.5-7.6,7.5
				c-4.1,0-7.6-2.9-7.6-7.6c0-4.7,3.5-7.6,7.6-7.6c3.4,0,6.3,1.9,7.3,5.2H95c-1.1-5.9-6.4-9.7-12.6-9.7c-7,0-12.9,4.9-12.9,12.1
				c0,7.3,5.9,12.1,12.9,12.1c5.5,0,10.3-2.9,12.1-7.7h3v6.8c0,0.2,0.2,0.5,0.5,0.5h4.4c0.2,0,0.5-0.2,0.5-0.5v-6.8h3.1h1.9l4.7,6.9
				c0.2,0.2,0.4,0.4,0.6,0.4h5.2c0.2,0,0.3-0.1,0.3-0.3c0-0.1,0-0.2-0.2-0.5L114.4,31.6z"/>
			<path d="M172.1,14.8h-0.2h-4.2h-1.8H162h-0.8c-0.5,0-0.6,0-0.8,0.4l-2.7,4.9l-4.4,8l0,0l-5.3-9.6l-1.8-3.3
				c-0.2-0.4-0.4-0.4-0.8-0.4h-1.1h-3.6h-1.9h-0.6h-5.2h-11.3c-0.2,0-0.5,0.2-0.5,0.5v4h5.3h6.5h5.2h0.6h3.8l0,0l8.8,16.1l1.2,2.2
				L153,38c0.1,0.2,0.5,0.2,0.6,0l0.3-0.5l1.2-2.2l8.8-16.1h3.3v18.4c0,0.2,0.2,0.5,0.5,0.5h4.4c0.2,0,0.5-0.2,0.5-0.5V15.3
				C172.5,15.1,172.3,14.8,172.1,14.8z"/>
			<path d="M192.6,33.7h-11.5V15.2c0-0.2-0.2-0.5-0.5-0.5h-4.4c-0.2,0-0.5,0.2-0.5,0.5v22.4c0,0.2,0.2,0.5,0.5,0.5h16.3
				c0.2,0,0.5-0.3,0.5-0.5v-3.3C193.2,34,192.9,33.7,192.6,33.7z"/>
			<path d="M213,33.7h-11.5V15.2c0-0.2-0.2-0.5-0.5-0.5h-4.4c-0.2,0-0.5,0.2-0.5,0.5v22.4c0,0.2,0.2,0.5,0.5,0.5H213
				c0.2,0,0.5-0.3,0.5-0.5v-3.3C213.6,34,213.3,33.7,213,33.7z"/>
			<path d="M233.4,19.2h0.6c0.2,0,0.5-0.3,0.5-0.5v-3.3c0-0.2-0.3-0.5-0.5-0.5h-0.6h-16.5c-0.2,0-0.5,0.2-0.5,0.5v4h5.3H233.4z"/>
			<path d="M234.6,33.8c-0.1-0.1-0.2-0.2-0.3-0.2h-0.9h-11.6v-7.4h1.3h11c0.2,0,0.5-0.3,0.5-0.5v-1v-1.2v-1.1c0-0.2-0.3-0.5-0.5-0.5
				h-12.3h-5.3v4.4v11.4c0,0.2,0.2,0.5,0.5,0.5h16.5h0.9c0.1,0,0.2-0.1,0.3-0.2c0.1-0.1,0.2-0.3,0.2-0.4v-3.3
				C234.8,34.1,234.7,33.9,234.6,33.8z"/>
			<path d="M139.2,33.7h-0.9h-11.7v-7.5h11.8h0.4c0.2,0,0.5-0.3,0.5-0.5v-1v-1.2v-1.1c0-0.2-0.3-0.5-0.5-0.5h-12.3h-5.3v4.4v11.5
				c0,0.2,0.2,0.5,0.5,0.5h16.5h0.9c0.1,0,0.2-0.1,0.3-0.2c0.1-0.1,0.2-0.3,0.2-0.4v-3.3c0-0.1-0.1-0.3-0.2-0.4
				C139.4,33.8,139.3,33.7,139.2,33.7z"/>
		</g>
	</g>
	<g>
		<path id="XMLID_147_" d="M46.1,53.7C46.1,53.8,46.1,53.8,46.1,53.7C46,53.8,46,53.8,46,53.8C46.1,53.8,46.1,53.8,46.1,53.7z"/>
		<path id="XMLID_148_" d="M46,53.8c-0.3,0.2-0.5,0.4-0.8,0.6C45.5,54.3,45.8,54,46,53.8z"/>
		<path id="XMLID_149_" d="M20.2,12.3c-0.7-1.6-1.7-3-2.8-4.3c-4.4,3.3-7.3,8.7-7.3,14.7c0,0.8,0.1,1.5,0.1,2.3
			c3.3,2.6,5.6,6.2,6.7,10.4c0.4-1.9,1.2-3.7,2.1-5.3c0.1-0.1,0.1-0.2,0.2-0.4c0.8-1.3,1.4-2.6,1.8-4.1c0,0,0,0,0,0
			c0.5-1.7,0.8-3.5,0.8-5.4C21.9,17.4,21.3,14.7,20.2,12.3z"/>
		<path id="XMLID_150_" d="M17.2,44.7c-0.4-1.5-0.7-3.1-0.7-4.8c0-0.1,0-0.1,0-0.2v0c-0.2-7.9-5.4-14.6-12.5-17
			c-1.3,2.5-2,5.3-2,8.3c0,2.8,0.6,5.4,1.7,7.8C8.8,39,13.6,41.1,17.2,44.7z"/>
		<path id="XMLID_151_" d="M32.8,0c-5.5,1.5-10,5.6-12.1,10.9c0.2,0.3,0.3,0.6,0.5,1c1.2,2.6,1.9,5.4,1.9,8.4c0,1.9-0.3,3.8-0.8,5.7
			c0,0,0,0.1,0,0.1c0,0.1-0.1,0.2-0.1,0.4c0.9-0.9,2-1.7,3.1-2.4c0.2-0.2,0.5-0.3,0.8-0.5c5.2-3.2,8.6-9,8.6-15.6
			C34.5,5,33.9,2.4,32.8,0z"/>
		<path d="M56.6,31.1c0-13.7-9.2-25.1-21.7-28.4c0.5,1.7,0.7,3.4,0.7,5.1c0,2.2-0.4,4.3-1,6.3c6.6,2.8,11.2,9.3,11.2,17
			c0,10.1-8.1,18.4-18.2,18.4c-1.9,0-3.7-0.3-5.4-0.8c-2.1-0.7-4-1.7-5.6-3c-3.3-3.5-8-5.7-13.1-5.7c-1.2,0-2.3,0.1-3.4,0.3
			c3.2,9.8,11.4,17.3,21.5,19.5c2,0.4,4,0.6,6.1,0.6c7,0,15.8-4.5,18.4-6.7C52.5,48.4,56.6,40.3,56.6,31.1z"/>
	</g>
</g>
</svg>
