<?xml version="1.0" encoding="utf-8"?>
<svg version="1.1" id="Layer_1" xmlns="http://www.w3.org/2000/svg" xmlns:xlink="http://www.w3.org/1999/xlink" x="0px" y="0px"
	 viewBox="0 -16 641 160" style="enable-background:new 0 -16 641 160;" xml:space="preserve">
<style type="text/css">
	.st0{fill-rule:evenodd;clip-rule:evenodd;fill:#000000;}
</style>
<g>
	<path class="st0" d="M63.8,136.7c4.4,2,11.8,1,15.7-0.6c23-9.5,38.9-20.5,51.3-33.6c2.4-2.5,3.7-6.4,4.6-9.9c2-8.2,1.7-32.1,1-40.5
		c-0.2-2.4-0.9-6-1.7-8.2c-4-11.2-7.9-19.2-12.9-28.6c-2.3-4.3-6-6.9-9.3-7.9C91.3,1,62.8-1,45.4,0.5c-6.5,0.6-10,2-13.2,5.8
		C15.8,26,5.2,48.6,0.4,73.4c-0.7,3.8-0.4,8.2,1,11.5C12.3,110,44.7,128.3,63.8,136.7z M90.9,94.6c-1.2,8.4-6.5,14.6-11.9,13.8
		c-5.4-0.8-8.8-8.2-7.6-16.6c1.2-8.4,6.5-14.6,11.9-13.8C88.7,78.8,92.1,86.3,90.9,94.6z M117.2,93c2.9,0.4,6.2-5.9,7.4-14.2
		s-0.2-15.3-3.1-15.7c-2.9-0.4-6.2,5.9-7.4,14.2C112.9,85.5,114.3,92.6,117.2,93z"/>
	<g>
		<g>
			<path class="st0" d="M340.2,49.3c0,0,28,0,38.6,0c2.3,0,4-2.1,4-4c0-3.6,0-8.8,0-12.1c0-15.4-7.7-31.7-31.9-31.7
				c-24.2,0-31.9,17.6-31.9,31.6c0,6.9,0,17.3,0,24.2c0,13.8,8.3,30.8,31.9,30.8c20.7,0,29.7-13,31.4-23.1c0.3-2.1-0.5-4.2-3.3-4.6
				c-3.7-0.5-9.3-1.4-13.1-1.9c-2-0.3-3.9,1-4.4,3c-1,4.6-5.1,7.6-10.4,7.6c-6.6,0-10.6-4.2-10.6-10.8L340.2,49.3z M359.5,38.7
				c1.1,0,2-0.9,2-2c0-1.5,0-3.5,0-4.6c0-14.8-21.3-14.8-21.3,0c0,2.1,0,3.5,0,4.6c0,1.1,0.9,2,2.1,2
				C346.3,38.7,355.4,38.7,359.5,38.7z"/>
			<path class="st0" d="M509.2,82.7c0,2.3,1.7,4,4,4c4.1,0,10.5,0,14.7,0c2.2,0,4-1.8,4-4c0-14.2,0-61.8,0-76.8c0-2.3-1.6-4.3-4.5-4
				c-4.3,0.6-10.7,1.4-14.7,1.9c-2,0.3-3.5,2-3.5,4C509.2,21.1,509.2,68.5,509.2,82.7z"/>
			<path class="st0" d="M544.7,82.7c0,2.3,1.7,4,4,4c4.1,0,10.5,0,14.7,0c2.2,0,4-1.8,4-4c0-14.2,0-61.8,0-76.8c0-2.3-1.6-4.3-4.5-4
				c-4.3,0.6-10.7,1.4-14.7,1.9c-2,0.3-3.5,2-3.5,4C544.7,21.1,544.7,68.5,544.7,82.7z"/>
			<path class="st0" d="M474.8,82.7c0,2.2,1.7,4,4,4c4.1,0,10.5,0,14.7,0c2.3,0,4-1.8,4-4c0-9.8,0-35,0-45.3c0-2.5-1.6-4.3-4.4-4
				c-4.4,0.5-10.8,1.2-14.7,1.7c-2.1,0.2-3.6,1.9-3.6,4C474.8,48.3,474.8,73,474.8,82.7z M474.8,21.1c0,2.4,2.1,4.3,4.5,4
				c4.3-0.6,10.7-1.4,14.7-2c2-0.3,3.5-2,3.5-4c0-3.7,0-9.4,0-13.4c0-2.5-2-4.3-4.5-4c-4.3,0.6-10.7,1.4-14.7,1.9
				c-2,0.3-3.5,2-3.5,4C474.8,11.3,474.8,17.1,474.8,21.1z"/>
			<path class="st0" d="M440.1,4.4c-2,0.3-3.4,2-3.4,3.9c-0.1,13.3-1.1,60.8-10.8,60.8c-9.5,0-9.4-47.9-9.4-63.3c0-3-1.9-4.4-4.6-4
				c-4.7,0.7-12.3,1.7-19,2.6c-2,0.3-3.5,2-3.5,4c1,69.1,30.8,78.2,36.7,78.2c5.8,0,36.5-8.2,37.9-80.8c0.1-2.9-1.8-4.3-4.4-4
				C452.9,2.5,444.6,3.7,440.1,4.4z"/>
			<path class="st0" d="M598.5,49.3c0,0,28,0,38.6,0c2.3,0,4-2.1,4-4c0-3.6,0-8.8,0-12.1c0-15.4-7.7-31.7-31.9-31.7
				c-24.2,0-31.9,17.6-31.9,31.6c0,6.9,0,17.3,0,24.2c0,13.8,8.3,30.8,31.9,30.8c20.7,0,29.7-13,31.4-23.1c0.3-2.1-0.5-4.2-3.3-4.6
				c-3.7-0.5-9.3-1.4-13.1-1.9c-2-0.3-3.9,1-4.4,3c-1,4.6-5.1,7.6-10.4,7.6c-6.6,0-10.6-4.2-10.6-10.8L598.5,49.3z M617.7,38.7
				c1.1,0,2-0.9,2-2c0-1.5,0-3.5,0-4.6c0-14.8-21.3-14.8-21.3,0c0,2.1,0,3.5,0,4.6c0,1.1,0.9,2,2.1,2
				C604.6,38.7,613.6,38.7,617.7,38.7z"/>
			<path class="st0" d="M264.5,86.7c2.2,0,4-1.8,4-4c0-13.1,0-54.1,0-54.1c7.1-7.6,20.1-11.7,20.4,1.9c0.1,4.1,0.2,9.2-0.1,13.8
				c-0.1,2,1.5,3.7,3.5,4c3.4,0.4,8.7,1.2,13.8,1.8c2.6,0.3,4.3-1.1,4.4-3.8c0.9-14.8,4-44.8-20.3-44.8c-8.6,0-15.5,4.1-21.7,9.7
				c0,0,0-2.6,0-5.1c0-2.5-1.4-4.3-4.5-4c-4,0.5-9.7,1.2-13.3,1.7c-2,0.3-3.5,2-3.5,4c0,13.4,0,61,0,75.1c0,2.2,1.8,4,4,4
				C255,86.7,260.7,86.7,264.5,86.7z"/>
			<path class="st0" d="M239.1,33.3c0-18.4-11.9-31.7-32-31.7c-20.1,0-32,13.5-32,31.7c0,2.2,0,2.6,0,24.1c0,18.2,12.2,30.7,32,30.7
				c19.8,0,32-12.2,32-30.7V33.3z M196.5,59c0-21.5,0-25.6,0-27.8c0-13.6,21.3-13.6,21.3,0c0,26.7,0,27.8,0,27.8
				C217.8,72.3,196.5,72.4,196.5,59z"/>
		</g>
		<g>
			<path class="st0" d="M555.2,114.5c0-8-4.9-13.8-13.3-13.8c-8.4,0-13.3,5.9-13.3,13.8c0,1,0-5.8,0,3.5c0,7.9,5.1,13.4,13.3,13.4
				c8.3,0,13.3-5.3,13.3-13.4C555.2,107.7,555.2,124.8,555.2,114.5z M537.4,118.7c0-9.4,0-4.2,0-5.2c0-5.9,8.9-5.9,8.9,0
				c0,11.6,0,5.1,0,5.1C546.3,124.5,537.4,124.6,537.4,118.7z"/>
			<path class="st0" d="M348.4,104.2c0-0.8,0.6-1.6,1.4-1.7c1.8-0.3,4.8-0.6,6.8-0.9c1.1-0.2,1.9,0.6,1.9,1.7c0,3.8,0,5.5,0,13.2
				c0,10.3-6.3,15.6-14.7,15.6c-8.4,0-14.7-5-14.7-15.7c0-7.3,0-8.7,0-12c0-0.9,0.6-1.6,1.5-1.7c1.8-0.2,4.7-0.7,6.6-0.9
				c1.4-0.2,1.9,0.9,1.9,1.7c0,5.4,0.1,13.5,0.1,15c0,6.9,9,6.9,9,0C348.4,118.4,348.4,109.2,348.4,104.2z"/>
			<path class="st0" d="M220.5,122.3c0-9.7-16.6-7.8-16.6-12c0-2,1.6-3,3.7-3c2.1,0,3.5,1.3,3.5,4c0,0.9,0.8,1.6,1.8,1.5
				c1.5-0.2,4.5-0.6,6.1-0.8c1-0.1,1.5-0.4,1.5-1.7c0-6.7-8.4-8.7-13.5-8.7c-8.4,0-13.6,3.9-13.6,8.9c0,9.6,16.7,7.1,16.7,12
				c0,2.2-1.6,3.2-3.4,3.2c-1.8,0-3.7-1.3-3.7-3.8c0-0.7-0.6-1.5-1.8-1.4c-1.8,0.2-4.5,0.6-5.8,0.7c-1.4,0.1-1.9,0.8-1.9,1.9
				c0,4.9,5.7,9.2,13.5,9.2C215.3,132.1,220.5,127.7,220.5,122.3z"/>
			<path class="st0" d="M622.9,122.3c0-9.7-16.6-7.8-16.6-12c0-2,1.6-3,3.7-3c2.1,0,3.5,1.3,3.5,4c0,0.9,0.8,1.6,1.8,1.5
				c1.5-0.2,4.5-0.6,6.1-0.8c1-0.1,1.5-0.4,1.5-1.7c0-6.7-8.4-8.7-13.5-8.7c-8.4,0-13.6,3.9-13.6,8.9c0,9.6,16.7,7.1,16.7,12
				c0,2.2-1.6,3.2-3.4,3.2c-1.8,0-3.7-1.3-3.7-3.8c0-0.7-0.6-1.5-1.8-1.4c-1.8,0.2-4.5,0.6-5.8,0.7c-1.4,0.1-1.9,0.8-1.9,1.9
				c0,4.9,5.7,9.2,13.6,9.2C617.7,132.1,622.9,127.7,622.9,122.3z"/>
			<path class="st0" d="M270.8,110.4c0,0,0,14.4,0,20.1c0,1.2,0.5,1.7,1.7,1.7c1.8,0,4.5,0,6.2,0c1.2,0,1.7-0.5,1.7-1.7
				c0-5.7,0-20.1,0-20.1s4.1,0,8.1,0c0.9,0,1.7-0.8,1.7-1.7c0-2,0-3.4,0-5.4c0-1.1-0.9-1.7-1.8-1.7c-6,0-18.8,0-25.9,0
				c-0.9,0-1.6,0.8-1.6,1.7c0,1.8,0,3.6,0,5.4c0,0.9,0.8,1.7,1.7,1.7C265.5,110.4,268.6,110.4,270.8,110.4z"/>
			<path class="st0" d="M474,130.5c0,1.1,1,1.7,1.9,1.7c1.9,0,5,0,6.9,0c1,0,1.9-0.8,1.9-1.7c0-6,0-20.9,0-27.2
				c0-1.1-0.8-1.8-2.1-1.7c-2,0.2-5,0.7-6.9,0.9c-0.9,0.1-1.6,0.8-1.6,1.7C474,109.8,474,124.4,474,130.5z"/>
			<path class="st0" d="M399.7,129.9c0,1.3,0.6,2.2,2.2,2.2c3.1,0,8.9,0,11,0c8,0,17-0.8,16-15.4c-0.9-12.6-5.9-15.2-15.9-15.2
				c-3.5,0-9.6,0-11.4,0c-1.3,0-1.9,0.9-1.9,2C399.7,109.5,399.7,124,399.7,129.9z M408.7,123.1c0-1.7,0-11.7,0-11.7
				c6.2,0,9.6-0.5,10.5,4.1C420.8,124,415,123.1,408.7,123.1z"/>
		</g>
	</g>
</g>
</svg>
